<?xml version="1.0" encoding="UTF-8" standalone="no"?>
<svg xmlns="http://www.w3.org/2000/svg" viewBox="0 0 24 24">
<style>
	g path { stroke: none; }
	g.root { display: none; }
	g.root:target { display: inline; }
	g line { stroke: black; }
	g circle { stroke: black; }
	g polyline { stroke: black; }
</style>
<g class="root" id="arrow_down" data-name="arrow-down">
	<path d="M3.19 4.405L12 13.216L20.81 4.405l3.19 3.19L12 19.595L0 7.595Z" />
</g>
<g class="root" id="calendar_time" data-name="calendar-time">
	<path d="M12.258 19.012c0 0.156-0.121 0.277-0.277 0.277H1.489c-0.814 0-1.472-0.658-1.472-1.472V3.032C0.017 2.218 0.675 1.56 1.489 1.56h2.805V0.296c0-0.173 0.139-0.294 0.294-0.294c0 0 0 0 0 0c0.156-0.017 0.294 0.104 0.294 0.26c0 0.017 0 0.017 0 0.035v3.117c0 0.173-0.139 0.294-0.294 0.294l0 0c-0.156 0.017-0.294-0.104-0.294-0.26c0-0.017 0-0.017 0-0.035v-1.264H1.489c-0.485 0-0.866 0.381-0.866 0.866v14.786c0 0.485 0.381 0.866 0.866 0.866h10.51C12.137 18.735 12.241 18.857 12.258 19.012M17.019 2.166h1.558c0.485 0 0.866 0.381 0.866 0.866V4.676H2.199c-0.173 0-0.294 0.139-0.294 0.294s0.139 0.294 0.294 0.294h17.245v6.701c0 0.173 0.139 0.294 0.294 0.294s0.294-0.139 0.294-0.294V3.032c0-0.814-0.658-1.472-1.472-1.472h-1.558c-0.156 0-0.277 0.121-0.277 0.277C16.742 2.045 16.864 2.148 17.019 2.166M6.129 2.148h9.038v1.264c0 0.173 0.139 0.294 0.294 0.294c0.156 0.017 0.294-0.104 0.294-0.26c0-0.017 0-0.017 0-0.035v-3.117c0-0.173-0.139-0.294-0.294-0.294c0 0 0 0 0 0c-0.156-0.017-0.294 0.104-0.294 0.26c0 0.017 0 0.017 0 0.035V1.56H6.094c-0.156 0-0.277 0.121-0.277 0.277c0 0 0 0 0 0l0 0.017C5.817 2.027 5.956 2.148 6.129 2.148L6.129 2.148M13.21 12v-0.866H10.284V13.68H12.31c0.156 0 0.294 0.121 0.294 0.277c0 0.156-0.104 0.277-0.26 0.294H10.284V16.796h1.645c0.156 0 0.277 0.121 0.277 0.277l0 0.017c0 0.156-0.121 0.277-0.277 0.277H2.978c-0.173 0-0.294-0.139-0.294-0.294V7.724c0-0.173 0.139-0.294 0.294-0.294l0 0H16.985c0.173 0 0.294 0.139 0.294 0.294v4.277c0 0.173-0.139 0.294-0.294 0.294c-0.156 0.017-0.294-0.104-0.294-0.26c0-0.017 0-0.017 0-0.035v-0.866H13.747v0.866c0 0.173-0.139 0.294-0.294 0.294C13.28 12.312 13.21 12.156 13.21 12L13.21 12zM16.725 8.001H13.782v2.545h2.926V8.001zM6.804 10.546h2.926V8.001H6.804V10.546zM3.307 10.546H6.25V8.001H3.307V10.546zM3.307 13.645H6.25V11.1H3.307V13.645zM3.307 16.762H6.25V14.216H3.307V16.762zM9.713 14.251H6.787V16.796H9.713L9.713 14.251zM9.713 11.1H6.787v2.545H9.713L9.713 11.1zM13.21 8.001H10.284v2.545h2.926V8.001zM19.824 13.42c-0.398-0.087-0.814-0.139-1.229-0.156c-0.242 0-0.502 0.017-0.745 0.052c-0.208 0.017-0.398 0.069-0.606 0.121c-0.121 0.035-0.208 0.052-0.294 0.087c-0.035 0-0.052 0.035-0.087 0.035c-0.052 0.035-0.156 0.052-0.208 0.087c-0.208 0.087-0.416 0.173-0.606 0.277c-0.537 0.294-1.022 0.658-1.437 1.108v-1.472c0-0.173-0.139-0.294-0.294-0.294c-0.156-0.017-0.294 0.104-0.294 0.26c0 0 0 0 0 0c0 0.017 0 0.017 0 0.035V15.93c0 0.035 0 0.069 0.035 0.087c0 0.035 0.035 0.052 0.052 0.087l0.035 0.035l0.035 0.035h2.095c0.156 0 0.277-0.121 0.277-0.277c0-0.156-0.121-0.294-0.277-0.294h-1.368c0.381-0.485 0.883-0.883 1.437-1.16c0.173-0.104 0.346-0.173 0.537-0.242c0.052-0.035 0.121-0.052 0.173-0.052h0.035c0.017 0 0.052-0.017 0.052-0.035h0.035l0.277-0.087c0.156-0.052 0.329-0.087 0.502-0.087c0.225-0.035 0.433-0.052 0.658-0.052c2.632-0.017 4.779 2.112 4.796 4.744c0.017 2.632-2.112 4.779-4.744 4.796c-2.493 0.017-4.571-1.905-4.779-4.38c0-0.121-0.035-0.242-0.035-0.364c0-0.173-0.139-0.294-0.294-0.294c-0.156-0.017-0.294 0.104-0.294 0.26c0 0.017 0 0.017 0 0.035c0 0.139 0 0.277 0.035 0.416c0.242 2.943 2.839 5.125 5.783 4.883s5.125-2.839 4.883-5.783C23.755 15.861 22.092 13.939 19.824 13.42L19.824 13.42zM18.578 15.203c-0.173 0-0.294 0.139-0.294 0.294v3.117c0 0.087 0.035 0.156 0.087 0.208l1.558 1.558c0.104 0.121 0.294 0.121 0.416 0.017c0 0 0 0 0.017-0.017c0.121-0.104 0.121-0.294 0.017-0.416l-0.017-0.017l-1.472-1.472V15.515c0.017-0.156-0.104-0.294-0.26-0.294C18.595 15.203 18.595 15.203 18.578 15.203L18.578 15.203z" />
</g>
<g class="root" id="carpet_cleaning" data-name="carpet-cleaning">
	<path d="M6.335 5.459h-0.553c-0.047 0-0.085-0.038-0.085-0.085v-1.233c0-0.047 0.038-0.085 0.085-0.085h0.553c0.047 0 0.085 0.038 0.085 0.085v1.233c0 0.047-0.038 0.085-0.085 0.085Zm0.085-2.98V1.525c0-0.198-0.161-0.364-0.364-0.364h0c-0.198 0-0.364 0.161-0.364 0.364v0.959c0 0.047 0.038 0.085 0.085 0.085h0.553c0.047 0 0.085-0.038 0.085-0.085Zm-1.063 1.105v-0.553c0-0.047-0.038-0.085-0.085-0.085h-1.233c-0.047 0-0.085 0.038-0.085 0.085v0.553c0 0.047 0.038 0.085 0.085 0.085h1.233c0.047 0 0.085-0.038 0.085-0.085Zm2.81 0v-0.553c0-0.047-0.038-0.085-0.085-0.085h-1.233c-0.047 0-0.085 0.038-0.085 0.085v0.553c0 0.047 0.038 0.085 0.085 0.085h1.233c0.047 0 0.085-0.038 0.085-0.085ZM15.803 13.666c-0.316-0.137-0.505-0.019-0.51 0.331 0 0.052 0.057 0.128 0.104 0.161 0.269 0.175 0.335 0.161 0.482-0.099 0.052-0.094 0.094-0.198 0.146-0.316-0.09-0.028-0.161-0.047-0.222-0.076Zm6.002-2.21v4.68c-0.562 0.52-1.129 1.058-1.705 1.582-0.293 0.269-0.449 0.274-0.803 0.123-0.614-0.26-9.496-4.439-10.469-4.879-0.047-0.024-0.08-0.071-0.08-0.123 0-0.789 0-1.554 0-2.319 0-1.549 0.213-2.168 0.335-2.418 0.057-0.118 1.28-1.384 1.601-1.733 0.043-0.047 0.109-0.057 0.165-0.024 0.179 0.104 3.627 1.724 4.057 1.917 0.175 0.08 0.515-0.628 0.605-0.907 0.213-0.666 1.695-6.375 1.861-6.97 0.354 0.071 0.194 0.033 0.652 0.165-0.118 0.425-0.241 0.85-0.354 1.28-0.128 0.482-1.11 4.024-1.247 4.534-0.033 0.128 0.137 0.151 0.279 0.227 0.26 0.137 0.496 0.194 0.803 0.335 0.175-0.628 1.507-5.696 1.818-6.79 0.043-0.142 0.128-0.151 0.208-0.123 0.17 0.061 0.335 0.151 0.482 0.222-0.156 0.524-0.316 1.006-0.439 1.497-0.179 0.699-0.316 1.407-0.548 2.092-0.123 0.368-0.194 0.751-0.293 1.129-0.142 0.534-1.034 3.651-1.294 4.043-0.184 0.279-0.17 0.406 0.151 0.524 0.298 0.109 3.792 1.762 4.213 1.932Zm-7.074-2.13l1.143 0.515c0.387-0.43 0.557-0.416 0.888-0.864 0.213-0.288 0.335-0.694 0.538-1.374-0.364-0.151-0.538-0.274-1.02-0.453-0.142 0.501-0.425 0.963-0.557 1.422-0.014 0.047-0.175 0.113-0.293 0.203-0.298 0.236-0.401 0.321-0.694 0.553Zm4.737 3.991c-0.005-0.146-0.08-0.26-0.161-0.283-0.642-0.175-9.213-4.279-9.695-4.52-0.132 0.052-0.364 2.097-0.222 2.154 0.406 0.17 5.049 2.352 5.2 2.503-0.283 0.52-0.213 0.538-0.383 0.453-0.033-0.019-4.713-2.22-4.85-2.257v1.082c0.458 0.217 0.902 0.444 1.36 0.628 0.628 0.255 1.214 0.605 1.847 0.85 0.68 0.264 1.327 0.623 1.988 0.94 0.581 0.274 1.157 0.553 1.738 0.822 1.006 0.468 2.007 0.935 3.041 1.417 0-0.288-0.014-0.562 0.005-0.836 0.009-0.17-0.085-0.255-0.194-0.331-0.09-0.057-1.719-0.808-2.442-1.157l0.26-0.609c0.803 0.368 1.563 0.718 2.385 1.096 0.104-0.817 0.161-1.322 0.123-1.955Zm1.62-0.808c-0.151 0.028-0.85 0.642-0.959 0.855-0.066 0.128-0.203 3.292-0.203 3.518l1.162-0.963v-3.41Zm-11.39 2.687c0 2.432-1.969 4.402-4.402 4.402 2.432 0 4.402 1.969 4.402 4.402 0-2.432 1.969-4.402 4.402-4.402-2.432 0-4.402-1.969-4.402-4.402ZM1.466 14.582c0.241-0.024 1.289-0.142 3.075-0.671 1.785-0.529 2.385-1.011 2.536-1.157 0.024-0.024 0.019-0.057 0-0.076l-0.453-0.373v-0.009s-0.439 0.463-2.262 1.001c-1.691 0.501-2.706 0.623-2.938 0.647-0.028 0-0.047 0.028-0.047 0.057l0.038 0.538c0 0.028 0.028 0.052 0.057 0.047Zm16.774 5.903c-0.94 0.581-1.667 0.831-1.856 0.888-0.028 0.009-0.043 0.038-0.033 0.061l0.142 0.52c0.009 0.028 0.038 0.047 0.066 0.038 0.213-0.061 1.015-0.331 2.054-0.978 0.024-0.014 0.033-0.052 0.014-0.076l-0.312-0.444s-0.047-0.028-0.071-0.014Zm3.915-3.67s-0.057-0.009-0.071 0.014c-0.146 0.203-0.841 1.148-2.149 2.361-0.345 0.321-0.69 0.6-1.02 0.841-0.024 0.019-0.028 0.047-0.009 0.071l0.316 0.434s0.052 0.028 0.071 0.009c0.349-0.255 0.713-0.548 1.077-0.888 1.379-1.28 2.092-2.257 2.243-2.475 0.019-0.024 0.009-0.057-0.014-0.071l-0.449-0.302Zm-5.02 1.814s-0.052-0.024-0.071 0c-0.184 0.17-1.063 0.945-2.593 1.865-0.113 0.066-0.222 0.132-0.331 0.189-0.024 0.014-0.033 0.043-0.019 0.071l0.246 0.482c0.014 0.028 0.047 0.038 0.071 0.024 0.123-0.066 0.246-0.137 0.368-0.213 1.615-0.968 2.517-1.771 2.711-1.95 0.024-0.019 0.024-0.052 0-0.076l-0.373-0.387ZM8.522 14.653s-0.047-0.028-0.071-0.014c-0.208 0.142-1.185 0.775-2.848 1.45-1.048 0.43-1.998 0.628-2.725 0.718-0.028 0-0.052 0.033-0.043 0.061l0.118 0.529c0.005 0.028 0.028 0.043 0.057 0.043 0.76-0.099 1.743-0.316 2.834-0.76 1.743-0.713 2.758-1.37 2.975-1.521 0.024-0.014 0.028-0.047 0.014-0.076l-0.312-0.439ZM1.891 16.882c-0.184 0-0.316 0-0.383-0.005-0.028 0-0.052 0.019-0.057 0.047l-0.052 0.538c0 0.028 0.019 0.057 0.047 0.057 0.066 0 0.194 0.009 0.368 0.009 0.052 0 0.109 0 0.165 0 0.033 0 0.057-0.028 0.052-0.061l-0.09-0.538c0-0.024-0.028-0.043-0.052-0.043Z" />
</g>
<g class="root" id="carpet_cleaning_old" data-name="carpet-cleaning-old">
	<path d="M11.894 10.06a0.5 0.5 0 0 0 0.5 0.5c0.935 0 2.085 1.15 2.085 2.085a0.5 0.5 0 0 0 1 0c0-0.935 1.149-2.085 2.084-2.085a0.5 0.5 0 0 0 0-1c-0.935 0-2.084-1.15-2.084-2.085a0.5 0.5 0 0 0-1 0c0 0.935-1.15 2.085-2.085 2.085a0.5 0.5 0 0 0-0.5 0.5m2.026 0A3.749 3.749 0 0 0 14.978 9a3.74 3.74 0 0 0 1.059 1.059a3.732 3.732 0 0 0-1.059 1.059a3.756 3.756 0 0 0-1.059-1.059M9.227 5.806C9.265 5.653 10.166 2.104 12.433 2.075a0.5 0.5 0 0 1 0.011 1c-1.237 0.014-2.057 2.204-2.247 2.97A0.5 0.5 0 0 1 9.712 6.427a0.5 0.5 0 0 1-0.485-0.62m8.803 1.841a1.653 1.653 0 0 1 1.414 1.413a0.5 0.5 0 0 0 1 0a1.653 1.653 0 0 1 1.414-1.413a0.5 0.5 0 1 0 0-1a1.654 1.654 0 0 1-1.414-1.414a0.5 0.5 0 1 0-1 0a1.654 1.654 0 0 1-1.414 1.414a0.5 0.5 0 0 0 0 1m1.349-0.5a2.939 2.939 0 0 0 0.565-0.565A2.943 2.943 0 0 0 20.507 7.146A2.945 2.945 0 0 0 19.943 7.713a2.958 2.958 0 0 0-0.565-0.566m-11.583-0.879a0.495 0.495 0 0 1-0.136-0.357c0.004-0.131 0.111-3.201 1.493-4.716a0.5 0.5 0 0 1 0.706-0.033a0.498 0.498 0 0 1 0.033 0.706c-1.132 1.243-1.232 4.047-1.233 4.074a0.5 0.5 0 0 1-0.863 0.327M13.895 16.034a0.909 0.909 0 1 0-0.91 0.91a0.91 0.91 0 0 0 0.91-0.91m-0.91-0.05a0.05 0.05 0 0 1 0.05 0.05c0 0.055-0.1 0.055-0.1 0a0.05 0.05 0 0 1 0.05-0.05m1.631 2.251a2.688 2.688 0 1 0 2.688 2.688a2.691 2.691 0 0 0-2.688-2.688m1.688 2.688a1.688 1.688 0 1 1-1.688-1.689a1.69 1.69 0 0 1 1.688 1.689m-1.688-1.184a1.185 1.185 0 1 0 1.184 1.184a1.186 1.186 0 0 0-1.184-1.184m0.184 1.184a0.184 0.184 0 1 1-0.184-0.184a0.184 0.184 0 0 1 0.184 0.184M5.969 5.927V0.889a0.5 0.5 0 1 1 1 0V5.927a0.5 0.5 0 1 1-1 0M18.199 14.341c-0.514-0.137-1.103-0.259-1.822-0.376a38.169 38.169 0 0 0-3.933-0.395a2.318 2.318 0 0 0-1.745 0.643a2.343 2.343 0 0 0-0.732 1.576H9.156a0.5 0.5 0 0 0-0.5 0.5v1.006H6.969v-6.181H7.51a0.497 0.497 0 0 0 0.42-0.229l0.611-0.944H9.682a1.465 1.465 0 0 0 1.461-1.462V7.356a0.5 0.5 0 0 0-0.5-0.5H2.296a0.5 0.5 0 0 0-0.5 0.5v1.125a1.465 1.465 0 0 0 1.462 1.462h1.14l0.611 0.944a0.5 0.5 0 0 0 0.42 0.229h0.541v6.181H4.025a2.944 2.944 0 1 0 2.944 2.944V18.297H8.656v0.929a0.5 0.5 0 0 0 0.5 0.5h0.805v0.857A2.079 2.079 0 0 0 11.027 22.398a0.5 0.5 0 0 0 0.487-0.873a1.079 1.079 0 0 1-0.553-0.94V15.931a1.358 1.358 0 0 1 0.425-0.991a1.372 1.372 0 0 1 1.005-0.372c0.9 0.047 2.241 0.143 3.561 0.342l0.477 1.453a1.666 1.666 0 0 0 1.049 1.055c2.254 0.76 3.833 2.299 4.359 4.24H17.878a0.5 0.5 0 1 0 0 1l4.573 0.003a0.487 0.487 0 0 0 0.079-0.006l0.011-0.002a1.521 1.521 0 0 0 1.459-1.523c0-3.18-2.277-5.845-5.802-6.788m4.801 6.788a0.526 0.526 0 0 1-0.171 0.389c-0.575-2.297-2.441-4.175-5.032-5.048a0.665 0.665 0 0 1-0.419-0.42l-0.31-0.944c0.335 0.067 0.616 0.132 0.872 0.201 3.073 0.822 5.059 3.108 5.059 5.824m-13.041-2.405H9.657V16.791h0.304Zm0.181-10.245A0.462 0.462 0 0 1 9.682 8.941H3.258a0.462 0.462 0 0 1-0.462-0.462V7.856H10.142Zm-2.793 1.462l-0.111 0.173h-1.536l-0.111-0.173ZM5.969 18.297v1.944a1.944 1.944 0 1 1-1.944-1.944ZM0.494 3.076A0.5 0.5 0 0 1 0 2.569a0.509 0.509 0 0 1 0.157-0.361a0.473 0.473 0 0 1 0.353-0.133C2.751 2.104 3.673 5.651 3.711 5.803a0.5 0.5 0 1 1-0.969 0.246C2.546 5.282 1.715 3.09 0.494 3.076m2.55-1.215a0.5 0.5 0 0 1 0.039-0.706a0.473 0.473 0 0 1 0.359-0.126a0.494 0.494 0 0 1 0.346 0.166c1.358 1.519 1.485 4.581 1.491 4.71a0.5 0.5 0 0 1-0.48 0.519h0a0.503 0.503 0 0 1-0.519-0.48c0-0.029-0.124-2.84-1.236-4.082" />
</g>
<g class="root" id="carpet_cleaningv2" data-name="carpet-cleaningV2">
	<path d="M6.335 5.459h-0.553c-0.047 0-0.085-0.038-0.085-0.085v-1.233c0-0.047 0.038-0.085 0.085-0.085h0.553c0.047 0 0.085 0.038 0.085 0.085v1.233c0 0.047-0.038 0.085-0.085 0.085Zm0.085-2.98V1.525c0-0.198-0.161-0.364-0.364-0.364h0c-0.198 0-0.364 0.161-0.364 0.364v0.959c0 0.047 0.038 0.085 0.085 0.085h0.553c0.047 0 0.085-0.038 0.085-0.085Zm-1.063 1.105v-0.553c0-0.047-0.038-0.085-0.085-0.085h-1.233c-0.047 0-0.085 0.038-0.085 0.085v0.553c0 0.047 0.038 0.085 0.085 0.085h1.233c0.047 0 0.085-0.038 0.085-0.085Zm2.81 0v-0.553c0-0.047-0.038-0.085-0.085-0.085h-1.233c-0.047 0-0.085 0.038-0.085 0.085v0.553c0 0.047 0.038 0.085 0.085 0.085h1.233c0.047 0 0.085-0.038 0.085-0.085ZM15.804 13.667c-0.316-0.137-0.505-0.019-0.51 0.331 0 0.052 0.057 0.128 0.104 0.161 0.269 0.175 0.335 0.161 0.482-0.099 0.052-0.094 0.094-0.198 0.146-0.316-0.09-0.028-0.161-0.047-0.222-0.076Zm6.003-2.21v4.68c-0.562 0.52-1.129 1.058-1.705 1.582-0.293 0.269-0.449 0.274-0.803 0.123-0.614-0.26-9.497-4.439-10.47-4.879-0.047-0.024-0.08-0.071-0.08-0.123 0-0.789 0-1.554 0-2.319 0-1.549 0.213-2.168 0.335-2.418 0.057-0.118 1.28-1.384 1.601-1.733 0.043-0.047 0.109-0.057 0.165-0.024 0.179 0.104 3.627 1.724 4.057 1.917 0.175 0.08 0.515-0.628 0.605-0.907 0.213-0.666 1.695-6.376 1.861-6.971 0.354 0.071 0.194 0.033 0.652 0.165-0.118 0.425-0.241 0.85-0.354 1.28-0.128 0.482-1.11 4.024-1.247 4.534-0.033 0.128 0.137 0.151 0.279 0.227 0.26 0.137 0.496 0.194 0.803 0.335 0.175-0.628 1.507-5.696 1.818-6.791 0.043-0.142 0.128-0.151 0.208-0.123 0.17 0.061 0.335 0.151 0.482 0.222-0.156 0.524-0.316 1.006-0.439 1.497-0.179 0.699-0.316 1.407-0.548 2.092-0.123 0.368-0.194 0.751-0.293 1.129-0.142 0.534-1.034 3.651-1.294 4.043-0.184 0.279-0.17 0.406 0.151 0.524 0.298 0.109 3.792 1.762 4.213 1.932Zm-7.075-2.13l1.143 0.515c0.387-0.43 0.557-0.416 0.888-0.864 0.213-0.288 0.335-0.694 0.538-1.374-0.364-0.151-0.538-0.274-1.02-0.453-0.142 0.501-0.425 0.963-0.557 1.422-0.014 0.047-0.175 0.113-0.293 0.203-0.298 0.236-0.401 0.321-0.694 0.553Zm4.737 3.991c-0.005-0.146-0.08-0.26-0.161-0.283-0.642-0.175-9.214-4.279-9.696-4.52-0.132 0.052-0.364 2.097-0.222 2.154 0.406 0.17 5.049 2.352 5.2 2.503-0.283 0.52-0.213 0.538-0.383 0.453-0.033-0.019-4.713-2.22-4.85-2.257v1.082c0.458 0.217 0.902 0.444 1.36 0.628 0.628 0.255 1.214 0.605 1.847 0.85 0.68 0.264 1.327 0.623 1.988 0.94 0.581 0.274 1.157 0.553 1.738 0.822 1.006 0.468 2.007 0.935 3.041 1.417 0-0.288-0.014-0.562 0.005-0.836 0.009-0.17-0.085-0.255-0.194-0.331-0.09-0.057-1.719-0.808-2.442-1.157l0.26-0.609c0.803 0.368 1.563 0.718 2.385 1.096 0.104-0.817 0.161-1.322 0.123-1.955Zm1.62-0.808c-0.151 0.028-0.85 0.642-0.959 0.855-0.066 0.128-0.203 3.292-0.203 3.518l1.162-0.963v-3.41Zm-11.391 2.687c0 2.432-1.969 4.402-4.402 4.402 2.432 0 4.402 1.969 4.402 4.402 0-2.432 1.969-4.402 4.402-4.402-2.432 0-4.402-1.969-4.402-4.402ZM1.466 14.583c0.241-0.024 1.289-0.142 3.075-0.671 1.785-0.529 2.385-1.011 2.536-1.157 0.024-0.024 0.019-0.057 0-0.076l-0.453-0.373v-0.009s-0.439 0.463-2.262 1.001c-1.691 0.501-2.706 0.623-2.938 0.647-0.028 0-0.047 0.028-0.047 0.057l0.038 0.538c0 0.028 0.028 0.052 0.057 0.047Zm16.775 5.903c-0.94 0.581-1.667 0.831-1.856 0.888-0.028 0.009-0.043 0.038-0.033 0.061l0.142 0.52c0.009 0.028 0.038 0.047 0.066 0.038 0.213-0.061 1.015-0.331 2.054-0.978 0.024-0.014 0.033-0.052 0.014-0.076l-0.312-0.444s-0.047-0.028-0.071-0.014Zm3.915-3.67s-0.057-0.009-0.071 0.014c-0.146 0.203-0.841 1.148-2.149 2.361-0.345 0.321-0.69 0.6-1.02 0.841-0.024 0.019-0.028 0.047-0.009 0.071l0.316 0.434s0.052 0.028 0.071 0.009c0.349-0.255 0.713-0.548 1.077-0.888 1.379-1.28 2.092-2.257 2.243-2.475 0.019-0.024 0.009-0.057-0.014-0.071l-0.449-0.302Zm-5.02 1.814s-0.052-0.024-0.071 0c-0.184 0.17-1.063 0.945-2.593 1.865-0.113 0.066-0.222 0.132-0.331 0.189-0.024 0.014-0.033 0.043-0.019 0.071l0.246 0.482c0.014 0.028 0.047 0.038 0.071 0.024 0.123-0.066 0.246-0.137 0.368-0.213 1.615-0.968 2.517-1.771 2.711-1.95 0.024-0.019 0.024-0.052 0-0.076l-0.373-0.387ZM8.522 14.654s-0.047-0.028-0.071-0.014c-0.208 0.142-1.185 0.775-2.848 1.45-1.048 0.43-1.998 0.628-2.725 0.718-0.028 0-0.052 0.033-0.043 0.061l0.118 0.529c0.005 0.028 0.028 0.043 0.057 0.043 0.76-0.099 1.743-0.316 2.834-0.76 1.743-0.713 2.758-1.37 2.975-1.521 0.024-0.014 0.028-0.047 0.014-0.076l-0.312-0.439ZM1.891 16.883c-0.184 0-0.316 0-0.383-0.005-0.028 0-0.052 0.019-0.057 0.047l-0.052 0.538c0 0.028 0.019 0.057 0.047 0.057 0.066 0 0.194 0.009 0.368 0.009 0.052 0 0.109 0 0.165 0 0.033 0 0.057-0.028 0.052-0.061l-0.09-0.538c0-0.024-0.028-0.043-0.052-0.043Z" />
</g>
<g class="root" id="cell_ring" data-name="cell-ring">
	<path d="M17.042 0.958H6.965a1.695 1.695 0 0 0-1.762 1.62V21.419a1.701 1.701 0 0 0 1.762 1.623H17.042a1.701 1.701 0 0 0 1.762-1.623V2.577A1.698 1.698 0.001 0 0 17.042 0.958ZM6.001 3.901H18V17.887H6.001Zm11.998 17.518a0.926 0.926 0 0 1-0.963 0.883H6.965A0.926 0.926 0.001 0 1 6.001 21.419v-2.794H18v2.794Zm0-18.255H6.001V2.577a0.926 0.926 0 0 1 0.963-0.883H17.042a0.929 0.929 0 0 1 0.963 0.883V3.165Zm-6 18.773a1.478 1.478 0 1 0 0-2.949a1.478 1.478 0 1 0 0 2.949Zm0-2.207a0.739 0.739 0 1 1-0.799 0.736A0.769 0.769 0.001 0 1 11.999 19.73ZM12.401 2.432a0.385 0.385 0 0 1-0.401 0.369H10.397A0.381 0.381 0.001 0 1 10 2.432a0.384 0.384 0 0 1 0.398-0.369h1.602A0.385 0.385 0.001 0 1 12.401 2.432Zm1.602 0a0.384 0.384 0 0 1-0.398 0.369H13.202A0.381 0.381 0.001 0 1 12.805 2.432A0.384 0.384 0.001 0 1 13.202 2.063h0.401A0.381 0.381 0.001 0 1 14.002 2.432ZM22.647 8.669a0.407 0.407 0 0 1-0.281 0.11a0.422 0.422 0 0 1-0.285-0.11a0.348 0.348 0 0 1 0-0.521a3.332 3.332 0 0 0 0-4.987a0.348 0.348 0 0 1 0-0.521a0.42 0.42 0 0 1 0.565 0A4.034 4.034 0.001 0 1 22.647 8.669Zm-0.682-2.962a3.013 3.013 0 0 1-1.003 2.229a0.406 0.406 0 0 1-0.285 0.106a0.414 0.414 0 0 1-0.281-0.106a0.348 0.348 0 0 1 0-0.521a2.285 2.285 0 0 0 0-3.414a0.348 0.348 0 0 1 0-0.521a0.42 0.42 0 0 1 0.565 0a3.013 3.013 0 0 1 1.003 2.229ZM1.924 8.148a0.348 0.348 0 0 1 0 0.521a0.416 0.416 0 0 1-0.285 0.11a0.407 0.407 0 0 1-0.281-0.11A4.031 4.031 0.001 0 1 1.354 2.638A0.42 0.42 0.001 0 1 1.921 2.638a0.348 0.348 0 0 1 0 0.521a3.332 3.332 0 0 0 0 4.987Zm1.686-0.839a0.348 0.348 0 0 1 0 0.521a0.409 0.409 0 0 1-0.281 0.106a0.446 0.446 0 0 1-0.285-0.106a2.973 2.973 0 0 1 0-4.455a0.42 0.42 0 0 1 0.565 0a0.348 0.348 0 0 1 0 0.521a2.285 2.285 0 0 0 0 3.414Z" />
</g>
<g class="root" id="checkmark" data-name="checkmark">
	<path d="M19.734 10a8.002 8.002 0 0 1-7.526 10h-0.219a8.028 8.028 0 0 1-7.194-4.49A8.11 8.11 4.003 0 1 5.823 6.892A8.033 8.033 4.003 0 1 13.985 4.251a0.615 0.615 0 1 1-0.306 1.193A6.81 6.81 4.003 0 0 6.771 7.678a6.86 6.86 0 0 0-0.866 7.294A6.884 6.884 4.003 0 0 12.178 18.767a6.767 6.767 0 0 0 6.368-8.459a0.615 0.615 0 1 1 1.193-0.306ZM9.812 10.26a0.615 0.615 0 0 0-0.87 0.87l2.611 2.611a0.614 0.614 0 0 0 0.433 0.181a0.621 0.621 0 0 0 0.437-0.181L19.808 6.354a0.615 0.615 0 1 0-0.87-0.87L11.986 12.433l-2.177-2.177Z" />
</g>
<g class="root" id="close" data-name="close">
	<path d="M1.285 0.002A1.498 1.498 0.012 0 0 0.012 1.5a1.498 1.498 0 0 0 0.434 0.884L10.019 11.986L0.447 21.604a1.408 1.408 0 0 0 0 1.992a1.393 1.393 0 0 0 1.962 0L11.996 14.009l9.572 9.587a1.498 1.498 0 0 0 2.007 0a1.408 1.408 0 0 0 0-1.992L14.034 11.986l9.587-9.587A1.423 1.423 0.012 0 0 21.614 0.437L11.996 10.009L2.454 0.437A1.588 1.588 0.012 0 0 1.285 0.002Z" />
</g>
<g class="root" id="equipment" data-name="equipment">
	<path d="M23.364 4.23L14.813 12.784a0.344 0.344 0 0 0-0.094 0.198l-0.435-0.435a0.343 0.343 0 0 0 0.198-0.094L23.906 3.031A0.356 0.356 0 0 0 23.403 2.527L13.979 11.95a0.348 0.348 0 0 0-0.095 0.2a1.859 1.859 0 0 0-2.562 0.005l-0.111 0.112a0.343 0.343 0 0 0-0.095 0.205l-1.93-1.93a1.783 1.783 0 0 0-2.517 0l-0.411 0.411a0.355 0.355 0 0 0 0 0.503L15.808 21.008a0.356 0.356 0 0 0 0.503 0l0.41-0.41a1.783 1.783 0 0 0 0-2.517l-1.929-1.93a0.346 0.346 0 0 0 0.205-0.095l0.112-0.111a1.818 1.818 0 0 0 0.005-2.562a0.353 0.353 0 0 0 0.2-0.095L23.87 4.734a0.356 0.356 0 0 0-0.503-0.503M16.22 20.095l-0.159 0.159L7.014 11.206l0.159-0.159a1.07 1.07 0 0 1 1.51 0L16.22 18.584a1.069 1.069 0 0 1 0 1.51m-1.613-4.655l-0.111 0.112a0.346 0.346 0 0 0-0.095 0.206l-2.89-2.89a0.347 0.347 0 0 0 0.206-0.095l0.112-0.111a1.13 1.13 0 0 1 1.561 0l1.219 1.219a1.104 1.104 0 0 1 0 1.561M15.255 21.21a0.357 0.357 0 0 1-0.356 0.356H7.184a0.356 0.356 0 0 1 0-0.712H14.899a0.357 0.357 0 0 1 0.356 0.356M4.707 11.881H0.356a0.356 0.356 0 0 1 0-0.712h4.35a0.356 0.356 0 0 1 0 0.712M13.3 20.178H5.154a0.356 0.356 0 0 1 0-0.712H13.3a0.356 0.356 0 1 1 0 0.712M6.217 13.155H2.179a0.356 0.356 0 0 1 0-0.712h4.038a0.356 0.356 0 0 1 0 0.712" />
</g>
<g class="root" id="exterior_building_washin" data-name="exterior_building_washing">
	<path d="M16.411 8.385l0.332 1.669l1.743 0.399a0.087 0.087 0 0 1 0.07 0.086a0.088 0.088 0 0 1-0.074 0.084l-1.762 0.315l-0.421 1.651a0.091 0.091 0 0 1-0.089 0.066h0a0.091 0.091 0 0 1-0.087-0.07l-0.332-1.669l-1.743-0.399a0.085 0.085 0 0 1 0.005-0.17l1.762-0.315l0.421-1.651a0.085 0.085 0 0 1 0.091-0.066a0.09 0.09 0 0 1 0.087 0.07M4.39 13.718h3.448a0.383 0.383 0 1 0 0-0.763h-3.448a0.383 0.383 0 1 0 0 0.763m-2.736 1.339a0.393 0.393 0 0 0 0.403 0.38h8.303a0.383 0.383 0 1 0 0-0.763H2.057a0.393 0.393 0 0 0-0.403 0.38m9.872 5.092h-3.533a0.383 0.383 0 1 0 0 0.763h3.533a0.383 0.383 0 1 0 0-0.763m-5.379 0h-1.756a0.383 0.383 0 1 0 0 0.763h1.756a0.383 0.383 0 1 0 0-0.763m9.983 0H13.696a0.383 0.383 0 1 0 0 0.763h2.435a0.383 0.383 0 1 0 0-0.763m-6.935-1.642a0.393 0.393 0 0 0 0.403 0.38h5.511a0.383 0.383 0 1 0 0-0.763H9.599a0.393 0.393 0 0 0-0.403 0.38m-4.805-0.38a0.383 0.383 0 1 0 0 0.763h3.75a0.383 0.383 0 1 0 0-0.763ZM12.747 16.82a0.393 0.393 0 0 0-0.403-0.38H0.417a0.383 0.383 0 1 0 0 0.763h11.926a0.393 0.393 0 0 0 0.403-0.38m-8.355-4.494h0.807a0.383 0.383 0 1 0 0-0.763h-0.807a0.383 0.383 0 1 0 0 0.763m19.609 8.727l-3.356 0.034L5.011 6.279l-4.025 5.277a0.41 0.41 0 0 1-0.327 0.159a0.418 0.418 0 0 1-0.237-0.072a0.369 0.369 0 0 1-0.091-0.534l4.309-5.651l0.009-1.509l-3.037 3.867a0.41 0.41 0 0 1-0.324 0.154a0.416 0.416 0 0 1-0.24-0.076a0.368 0.368 0 0 1-0.084-0.535l3.351-4.269a0.411 0.411 0 0 1 0.339-0.154v-0.026l0.031 0.029a0.412 0.412 0 0 1 0.194 0.071a0.377 0.377 0 0 1 0.16 0.259l4.552 4.272V3.84a0.393 0.393 0 0 1 0.403-0.38h6.288a0.393 0.393 0 0 1 0.403 0.38v3.727a0.404 0.404 0 0 1-0.807 0V5.671H10.402v2.63ZM10.402 5.098h5.481V4.222h-5.481Zm10.307 13.978L14.317 13.022l-0.427 0.404l6.027 5.708Z" />
</g>
<g class="root" id="formula" data-name="formula">
	<path d="M21.074 13.174V5.163a1.126 1.126 0 0 0-1.125-1.125H17.276l0.584-2.274A1.406 1.406 2.876 1 0 15.137 1.063l-0.766 2.975H4.048A1.125 1.125 2.876 0 0 3.075 5.727L4.013 7.351V15.263a0.469 0.469 0 1 0 0.937 0V13.424a5.218 5.218 0 0 1 7.043-0.15L10.316 19.776a1.406 1.406 0 0 0 2.724 0.702L14.469 14.93A6.174 6.174 2.876 0 0 20.136 14.18v1.858H19.248a0.469 0.469 0 1 0 0 0.937H20.136v1.314H18.031a0.469 0.469 0 0 0 0 0.937H20.136v1.314H19.248a0.469 0.469 0 1 0 0 0.937H20.063a2.159 2.159 0 0 1-2.08 1.594h-10.874a2.159 2.159 0 0 1-2.156-2.156v-1.898a0.469 0.469 0 0 0-0.937 0v1.898a3.097 3.097 0 0 0 3.093 3.094h10.874a3.097 3.097 0 0 0 3.093-3.094v-7.736ZM16.046 1.297a0.469 0.469 0 1 1 0.908 0.234l-0.646 2.508H15.34Zm0.02 3.679L13.847 13.591a5.224 5.224 0 0 1-0.809-0.617l2.061-7.997ZM4.95 12.206V7.226a0.467 0.467 0 0 0-0.063-0.234L3.886 5.257a0.188 0.188 0 0 1 0.162-0.282H14.13L12.249 12.276A6.164 6.164 2.876 0 0 4.95 12.206Zm7.181 8.039a0.469 0.469 0 0 1-0.908-0.234l1.553-6.027a6.088 6.088 0 0 0 0.826 0.551Zm2.573-6.228L17.035 4.975h2.915a0.188 0.188 0 0 1 0.188 0.188v1.875H19.248a0.469 0.469 0 1 0 0 0.937H20.136v1.314H18.031a0.469 0.469 0 0 0 0 0.937H20.136v1.314H19.248a0.469 0.469 0 1 0 0 0.937H20.136v0.499A5.221 5.221 2.876 0 1 14.704 14.017Z" />
</g>
<g class="root" id="grad_hat" data-name="grad-hat">
	<path d="M23.086 6.646L13.346 2.474a3.438 3.438 0 0 0-2.697 0L0.913 6.646a1.509 1.509 0 0 0 0 2.773l1.151 0.494c0 0.012 0 0.024 0 0.035V15.396a1.125 1.125 0 0 0-0.481 1.814a1.196 1.196 0 0 0-0.353 0.748L0.951 20.993A0.741 0.741-0.002 0 0 1.693 21.802H3.151a0.741 0.741 0 0 0 0.739-0.809l-0.275-3.034a1.194 1.194 0 0 0-0.353-0.748a1.124 1.124 0 0 0-0.48-1.814V10.22l1.965 0.842c0 0.013 0 0.024 0 0.035v2.742c0 1.145 0.784 2.204 2.207 2.982A10.721 10.721-0.002 0 0 11.999 17.971a10.722 10.722 0 0 0 5.047-1.149c1.422-0.776 2.207-1.835 2.207-2.982v-2.742c0-0.013 0-0.024 0-0.035L23.084 9.42a1.508 1.508 0 0 0 0-2.773M3.168 21.076a0.023 0.023 0 0 1-0.017 0.008H1.693a0.023 0.023 0 0 1-0.018-0.008a0.023 0.023 0 0 1-0.006-0.018l0.275-3.033a0.48 0.48 0 0 1 0.956 0L3.175 21.058a0.022 0.022 0 0 1-0.006 0.018M2.421 16.869a0.407 0.407 0 1 1 0.407-0.407a0.408 0.408 0 0 1-0.407 0.407M18.535 12.309c0 0.929-0.764 1.835-2.097 2.488a0.359 0.359 0 1 0 0.316 0.645a5.467 5.467 0 0 0 1.753-1.293c-0.134 0.757-0.764 1.474-1.806 2.043a10.002 10.002 0 0 1-4.704 1.059a10.004 10.004 0 0 1-4.704-1.059c-1.038-0.568-1.666-1.281-1.804-2.036a5.241 5.241 0 0 0 1.46 1.133A10.727 10.727-0.002 0 0 11.999 16.438a12.864 12.864 0 0 0 1.577-0.096a0.359 0.359 0 0 0-0.089-0.713A12.112 12.112-0.002 0 1 11.999 15.719a10.003 10.003 0 0 1-4.704-1.059c-1.182-0.647-1.833-1.482-1.833-2.351v-0.939l5.188 2.224a3.438 3.438 0 0 0 2.696 0l5.188-2.224ZM22.802 8.76L13.065 12.933a2.718 2.718 0 0 1-2.13 0L3.493 9.745l6.819-1.186A2.231 2.231-0.002 0 0 11.999 9.159c1.079 0 1.892-0.484 1.892-1.125s-0.812-1.125-1.892-1.125c-0.98 0-1.741 0.399-1.871 0.953L2.359 9.212a0.343 0.343 0 0 0-0.066 0.018L1.196 8.759a0.79 0.79 0 0 1 0-1.452L10.933 3.135a2.713 2.713 0 0 1 2.13 0L22.802 7.308a0.79 0.79 0 0 1 0 1.452M10.826 8.034c0-0.106 0.404-0.407 1.173-0.407s1.173 0.302 1.173 0.407S12.768 8.44 11.999 8.44s-1.173-0.302-1.173-0.407" />
</g>
<g class="root" id="gutter_cleaning" data-name="gutter-cleaning">
	<path d="M10.603 3.133l-1.849 0.273l-0.268 1.881l-0.268-1.881l-1.849-0.273l1.849-0.273l0.268-1.881l0.268 1.881ZM17.36 5.916a0.207 0.207 0 0 0 0.205 0.209h5.875l-0.257 0.575H11.026l-1.011 3.881h12.102a0.418 0.418 0 0 1 0 0.836h-0.973v1.604h-1.469v6.352a0.411 0.411 0 1 1-0.822 0v-6.352H13.624a0.419 0.419 0 0 1 0.037 0.172V22.61a0.411 0.411 0 1 1-0.822 0V13.192a0.422 0.422 0 0 1 0.037-0.172h-1.168a0.921 0.921 0 0 1-0.912-0.929V11.415H9.57a0.4 0.4 0 0 1-0.095 0.012H3.925a0.412 0.412 0 0 1-0.397-0.311L2.365 6.646h-1.542l-0.823-1.837H2.791l0.184 0.933l0.542 2.082a1.795 1.795 0 0 0 1.219-0.785l0.237-0.359l0.237 0.359a1.782 1.782 0 0 0 2.986 0l0.237-0.359l0.237 0.359a1.794 1.794 0 0 0 1.206 0.781l0.637-2.446c0-0.007 0.005-0.011 0.007-0.018l0.099-0.496h13.381l-0.379 0.845H17.566a0.207 0.207 0 0 0-0.205 0.209M9.736 8.391a2.359 2.359 0 0 1-1.295-0.719a2.347 2.347 0 0 1-3.46 0a2.358 2.358 0 0 1-1.31 0.721l0.573 2.199h4.57a0.4 0.4 0 0 1 0.095-0.012h0.261Zm8.28 3.576H11.604v0.418h6.411Z" />
</g>
<g class="root" id="handshake" data-name="handshake">
	<path d="M2.401 11.092A5.309 5.309-0.021 0 1 10.064 3.746l1.195 1.196L8.482 7.718a1.205 1.205 0 0 0 0 1.703a2.732 2.732 0 0 0 3.86 0L13.944 7.82L17.266 11.027a0.524 0.524 0 0 0 0.723-0.012a0.512 0.512 0 0 0-0.013-0.723L14.295 6.737a0.514 0.514 0 0 0-0.716 0.006l-1.958 1.958a1.71 1.71 0 0 1-2.415 0a0.183 0.183 0 0 1 0-0.259l3.037-3.037a0.475 0.475 0 0 0 0.036-0.042l0.003 0.003l0.043-0.031c0.012-0.009 0.023-0.02 0.04-0.036l1.553-1.553A5.31 5.31-0.021 0 1 20.789 3.203A0.511 0.511-0.021 0 0 21.501 3.091a0.511 0.511 0 0 0-0.112-0.713A6.332 6.332-0.021 0 0 13.193 3.023L11.99 4.227L10.786 3.023A6.331 6.331-0.021 0 0 1.65 11.784a0.514 0.514 0 0 0 0.376 0.164a0.511 0.511 0 0 0 0.376-0.857M12.165 5.249l-0.002-0.004l0.009 0.01Zm0.043-0.033Z" />
	<path d="M22.584 3.509a0.511 0.511 0 1 0-0.792 0.645a5.309 5.309 0 0 1-0.369 7.1l-1.205 1.205l-1.154-1.114A0.511 0.511-0.021 0 0 18.354 12.078l1.511 1.459L20.731 14.404a0.945 0.945 0 1 1-1.337 1.337L16.457 12.805a0.511 0.511 0 0 0-0.872 0.36a0.505 0.505 0 0 0 0.15 0.36L19.061 16.852a0.947 0.947 0 0 1 0 1.337a0.97 0.97 0 0 1-1.337 0l-3.247-3.247a0.507 0.507 0 0 0-0.36-0.15h0a0.511 0.511 0 0 0-0.36 0.872l2.857 2.858a0.945 0.945 0 0 1 0 1.337a0.969 0.969 0 0 1-1.337 0L14.144 18.728a0.448 0.448 0 0 0-0.054-0.047a1.948 1.948 0 0 0-0.397-0.572a1.978 1.978 0 0 0-1.487-0.573a1.963 1.963 0 0 0-2.059-2.059a1.964 1.964 0 0 0-2.058-2.06c0-0.033 0.002-0.064 0.002-0.096a1.965 1.965 0 0 0-3.358-1.391l-0.749 0.749l-0.531-0.531a0.508 0.508 0 0 0-0.36-0.15h0a0.511 0.511 0 0 0-0.36 0.872l0.531 0.531l-0.278 0.279A1.967 1.967-0.021 0 0 4.14 17.025a1.965 1.965 0 0 0 2.399 2.398a1.954 1.954 0 0 0 0.562 1.158a1.98 1.98 0 0 0 1.887 0.512a1.968 1.968 0 0 0 3.23 1.264a1.965 1.965 0 0 0 3.23-1.262a1.977 1.977 0 0 0 0.496 0.063A1.965 1.965-0.021 0 0 17.898 19.425A1.965 1.965-0.021 0 0 20.295 17.025a1.967 1.967 0 0 0 1.158-3.344l-0.507-0.507l1.199-1.199A6.33 6.33-0.021 0 0 22.584 3.509M14.164 21.531a0.963 0.963 0 0 1-1.212 0.104l0.743-0.742a1.963 1.963 0 0 0 0.455-0.714l0.015 0.015a0.947 0.947 0 0 1 0 1.337m-1.193-2.698a0.947 0.947 0 0 1 0 1.337L11.609 21.531a0.97 0.97 0 0 1-1.337 0a0.947 0.947 0 0 1 0-1.337l1.361-1.361a0.947 0.947 0 0 1 1.337 0m-5.146-0.31l1.75-1.75a0.969 0.969 0 0 1 1.337 0a0.946 0.946 0 0 1 0 1.337l-1.75 1.75a0.968 0.968 0 0 1-1.337 0a0.945 0.945 0 0 1 0-1.337M3.704 15.741a0.945 0.945 0 0 1 0-1.337l1.75-1.75A0.945 0.945-0.021 0 1 6.793 13.991l-1.75 1.75a0.968 0.968 0 0 1-1.337 0m5.423-0.36a0.939 0.939 0 0 1-0.276 0.669l-2.139 2.139a0.945 0.945 0 0 1-1.337-1.337L7.514 14.713a0.945 0.945 0 0 1 1.613 0.669" />
</g>
<g class="root" id="hold_heart" data-name="hold-heart">
	<path d="M12 13.579l6.159-5.913a4.496 4.496 0 0 0 1.297-3.179A4.45 4.45 0.011 0 0 15.052 0A4.352 4.352 0.011 0 0 12 1.25A4.351 4.351 0.011 0 0 8.948 0A4.45 4.45 0.011 0 0 4.543 4.485A4.508 4.508 0.011 0 0 5.849 7.673ZM8.948 0.876A3.489 3.489 0.011 0 1 11.659 2.177l0.34 0.418l0.34-0.418a3.491 3.491 0 0 1 2.711-1.301a3.574 3.574 0 0 1 3.528 3.608a3.618 3.618 0 0 1-1.036 2.555L12 12.363L6.466 7.049A3.624 3.624 0.011 0 1 5.42 4.485a3.574 3.574 0 0 1 3.528-3.608m3.357 9.63l-0.606-0.633l4.435-4.258a1.623 1.623 0 0 0 0.442-1.13h0.877a2.507 2.507 0 0 1-0.7 1.751Zm-5.055-4.268a2.507 2.507 0 0 1-0.7-1.751a2.446 2.446 0 0 1 2.398-2.48V2.882a1.567 1.567 0 0 0-1.523 1.604a1.633 1.633 0 0 0 0.455 1.142ZM23.989 14.97a3.593 3.593 0 0 1-1.013 2.514l-3.942 4.085a2.062 2.062 0 0 0-0.579 1.437v0.994H17.576V23.005a2.932 2.932 0 0 1 0.826-2.045l3.943-4.085a2.719 2.719 0 0 0 0.767-1.903L23.091 3.884H23.03a1.568 1.568 0 0 0-1.567 1.567V10.464h-0.025a1.653 1.653 0 0 1 0.025 0.251a1.707 1.707 0 0 1-0.206 0.802L18.245 17.035l-0.771-0.42l3.008-5.515a0.828 0.828 0 0 0 0.102-0.387a0.811 0.811 0 0 0-1.528-0.384l-2.192 3.976L14.25 16.88a6.115 6.115 0 0 0-1.812 4.329v2.787H11.56V21.211A6.117 6.117 0.011 0 0 9.75 16.88L7.06 14.203l-2.116-3.875a0.812 0.812 0 0 0-1.528 0.387a0.836 0.836 0 0 0 0.105 0.391l3.006 5.509l-0.771 0.42l-3.008-5.515a1.713 1.713 0 0 1-0.209-0.807a1.652 1.652 0 0 1 0.025-0.251H2.537V5.451A1.568 1.568 0.011 0 0 0.97 3.884H0.907l-0.019 11.087a2.716 2.716 0 0 0 0.767 1.903l3.943 4.086a2.933 2.933 0 0 1 0.825 2.045v0.994H5.545V23.005a2.057 2.057 0 0 0-0.579-1.437L1.024 17.484A3.593 3.593 0.011 0 1 0.011 14.97L0.032 3.007H0.97a2.446 2.446 0 0 1 2.446 2.446v3.789a1.67 1.67 0 0 1 0.815-0.219a1.696 1.696 0 0 1 1.483 0.884l2.085 3.819l2.569 2.532A6.965 6.965 0.011 0 1 12 18.814A6.966 6.966 0.011 0 1 13.634 16.257l2.569-2.532l2.084-3.818A1.696 1.696 0.011 0 1 19.769 9.023a1.67 1.67 0 0 1 0.815 0.219v-3.789a2.446 2.446 0 0 1 2.446-2.446h0.939Z" />
</g>
<g class="root" id="holiday_lights" data-name="holiday-lights">
	<path d="M4.174 16.769v1.443h3.101v-1.504c1.047-0.524 1.705-1.52 1.705-2.608 0-1.417-1.304-5.52-3.317-5.52s-3.317 4.098-3.317 5.52c0 1.13 0.724 2.167 1.833 2.665Zm1.489-7.281c1.15 0 2.413 3.24 2.413 4.616 0 0.811-0.555 1.556-1.417 1.895h0c-0.19 0.077-0.39 0.118-0.596 0.118h-0.806c-0.164 0-0.329-0.026-0.483-0.082h0c-0.929-0.318-1.525-1.078-1.525-1.931 0-1.376 1.263-4.616 2.413-4.616Zm-0.452-2.3v-2.465c0-0.252 0.2-0.452 0.452-0.452s0.452 0.2 0.452 0.452v2.465c0 0.252-0.2 0.452-0.452 0.452s-0.452-0.2-0.452-0.452Zm3.024 1.453c-0.164-0.19-0.149-0.472 0.041-0.637l1.849-1.628c0.19-0.164 0.472-0.149 0.637 0.041 0.164 0.19 0.149 0.472-0.041 0.637l-1.849 1.628c-0.087 0.077-0.19 0.113-0.298 0.113-0.123 0-0.252-0.051-0.339-0.154ZM0.6 7.054c-0.19-0.164-0.205-0.452-0.041-0.637 0.164-0.19 0.452-0.205 0.637-0.041l1.849 1.628c0.19 0.164 0.205 0.452 0.041 0.637-0.087 0.103-0.216 0.154-0.339 0.154-0.108 0-0.211-0.036-0.298-0.113L0.6 7.054Zm14.09 7.507v1.448h3.101v-1.504c1.047-0.524 1.705-1.52 1.705-2.608 0-1.417-1.304-5.52-3.317-5.52s-3.317 4.098-3.317 5.52c0 1.13 0.724 2.167 1.833 2.665Zm1.489-7.281c1.15 0 2.413 3.24 2.413 4.616 0 0.811-0.555 1.556-1.417 1.895h0c-0.19 0.077-0.39 0.113-0.596 0.118l-0.673 0.015c-0.205 0-0.411-0.026-0.606-0.092h-0.01c-0.924-0.323-1.525-1.078-1.525-1.936 0-1.376 1.263-4.616 2.413-4.616Zm-0.452-2.3V2.515c0-0.252 0.2-0.452 0.452-0.452s0.452 0.2 0.452 0.452v2.465c0 0.252-0.2 0.452-0.452 0.452s-0.452-0.2-0.452-0.452Zm3.024 1.453c-0.164-0.19-0.149-0.472 0.041-0.637l1.849-1.628c0.19-0.164 0.472-0.149 0.637 0.041 0.164 0.19 0.149 0.472-0.041 0.637l-1.849 1.628c-0.087 0.077-0.19 0.113-0.298 0.113-0.123 0-0.252-0.051-0.339-0.154Zm-7.635-1.587c-0.19-0.164-0.205-0.452-0.041-0.637 0.164-0.19 0.452-0.205 0.637-0.041l1.849 1.628c0.19 0.164 0.205 0.452 0.041 0.637-0.087 0.103-0.216 0.154-0.339 0.154-0.108 0-0.211-0.036-0.298-0.113l-1.849-1.628Zm-2.023 15.22H2.747v-0.904h6.711c0.041-0.072 0.082-0.144 0.123-0.205 0.678-1.047 1.515-1.879 1.551-1.91l0.134-0.128h10.28l-1.13 0.904H11.64c-0.252 0.262-0.827 0.899-1.299 1.628-0.606 0.935-0.729 2.567-0.231 3.117 0.39 0.431 0.95 0.611 1.546 0.493 0.503-0.103 0.94-0.39 1.222-0.801h1.022c-0.365 0.858-1.14 1.499-2.069 1.684-0.185 0.036-0.365 0.056-0.544 0.056-0.709 0-1.366-0.288-1.854-0.827-0.323-0.359-0.493-0.893-0.534-1.474H4.462c-0.19 0-0.344-0.2-0.344-0.452s0.154-0.452 0.344-0.452h4.478c0.031-0.246 0.082-0.488 0.149-0.724Zm11.497 0.395H11.989v-1.946h8.601v1.946Zm1.381-12.329l1.582 0.231l-1.582 0.231l-0.231 1.582l-0.231-1.582l-1.582-0.231l1.582-0.231l0.231-1.582l0.231 1.582ZM11.204 2.829l-2.47 0.359l-0.359 2.47l-0.359-2.47l-2.47-0.359l2.47-0.359l0.359-2.47l0.359 2.47l2.47 0.359Zm1.114 7.214c-0.77 0-1.392 0.621-1.392 1.392 0-0.77-0.621-1.392-1.392-1.392 0.77 0 1.392-0.621 1.392-1.392 0 0.77 0.621 1.392 1.392 1.392Z" />
</g>
<g class="root" id="holiday_lights_old" data-name="holiday-lights-old">
	<path d="M11.068 12.276c-0.2 0.451-0.651 1.353-0.251 2.856c0.05 0.2-0.05 0.401-0.251 0.451c-0.05 0-0.05 0-0.1 0c-0.15 0-0.301-0.1-0.351-0.301c-0.451-1.754 0.1-2.856 0.301-3.357c0.1-0.2 0.301-0.251 0.501-0.15C11.068 11.875 11.168 12.075 11.068 12.276L11.068 12.276zM3.953 9.77c-0.451 0.301-1.453 1.002-1.954 2.756c-0.05 0.2 0.05 0.401 0.251 0.451c0.05 0 0.05 0 0.1 0c0.15 0 0.301-0.1 0.351-0.251c0.451-1.503 1.253-2.054 1.654-2.355c0.15-0.1 0.2-0.351 0.1-0.501C4.353 9.72 4.103 9.67 3.953 9.77L3.953 9.77zM23.244 18.439c-0.15 0.1-0.351 0.15-0.601 0.15l0 0c-1.553 0-4.66-2.405-5.913-4.51c-0.651-1.152-1.002-3.157-0.501-4.56l-1.303-2.205c-0.1-0.2-0.05-0.401 0.15-0.551l0.351-0.2c0 0 0-0.05-0.05-0.05c-0.15-0.251-0.15-0.601 0.05-0.802C14.525 5.962 13.573 6.112 12.571 6.163c0.15 0.15 0.251 0.351 0.251 0.601c0 0 0 0.05 0 0.05h0.401C13.423 6.814 13.573 6.964 13.573 7.165v2.555c1.102 0.952 1.854 2.856 1.854 4.209c0 2.706-1.854 7.015-3.407 7.015s-3.407-4.309-3.407-7.015c0-1.353 0.752-3.207 1.854-4.209V7.165c0-0.2 0.15-0.401 0.401-0.401h0.401c0 0 0-0.05 0-0.05c0-0.251 0.1-0.451 0.251-0.601c-1.002-0.05-2.004-0.2-2.906-0.501c0.15 0.251 0.2 0.551 0.05 0.802c0 0 0 0.05-0.05 0.05l0.351 0.2c0.2 0.1 0.251 0.351 0.15 0.501l-1.303 2.205c0.501 1.403 0.2 3.407-0.501 4.56c-1.203 2.104-4.359 4.51-5.913 4.51l0 0c-0.251 0-0.401-0.05-0.601-0.15c-0.852-0.501-0.852-2.305-0.752-3.357c0.15-1.603 0.651-3.307 1.303-4.409c0.651-1.152 2.255-2.405 3.708-2.706l1.303-2.205c0.1-0.2 0.351-0.251 0.551-0.15l0.351 0.2c0 0 0-0.05 0.05-0.05c0.1-0.2 0.251-0.301 0.451-0.351c-0.852-0.351-1.603-0.802-2.305-1.353c-0.2-0.15-0.251-0.451-0.05-0.651c0.15-0.2 0.451-0.251 0.651-0.1c1.603 1.253 3.758 2.004 6.013 2.004s4.409-0.701 6.013-2.004c0.2-0.15 0.501-0.15 0.651 0.1s0.15 0.501-0.1 0.651c-0.701 0.551-1.503 1.002-2.305 1.353c0.2 0.05 0.351 0.15 0.451 0.351c0 0 0 0.05 0 0.05l0.351-0.2c0.2-0.1 0.401-0.05 0.501 0.15l1.303 2.255c1.453 0.301 3.056 1.553 3.708 2.706C24.045 12.977 24.546 17.637 23.244 18.439L23.244 18.439zM7.159 9.971l-2.205-1.253c-1.152 0.351-2.405 1.353-2.956 2.305c-0.601 1.002-1.052 2.606-1.203 4.109c-0.15 1.704 0.15 2.555 0.351 2.656c0.05 0.05 0.1 0.05 0.2 0.05c1.203 0 4.109-2.155 5.261-4.159C7.21 12.777 7.46 11.123 7.159 9.971L7.159 9.971zM13.322 10.522h-2.555c-0.802 0.852-1.403 2.405-1.403 3.457c0 2.706 1.854 6.313 2.706 6.313s2.706-3.608 2.706-6.313C14.725 12.927 14.124 11.374 13.322 10.522L13.322 10.522zM22.041 11.023c-0.551-0.952-1.804-1.954-2.956-2.305l-2.205 1.253c-0.301 1.152 0 2.806 0.501 3.708c1.152 2.004 4.059 4.159 5.261 4.159l0 0c0.1 0 0.15 0 0.2-0.05C23.594 17.386 23.394 13.328 22.041 11.023L22.041 11.023zM18.033 11.374c0-0.2-0.2-0.351-0.401-0.351c-0.2 0-0.351 0.2-0.351 0.401c0.05 0.501 0.15 1.754 1.403 3.056c0.05 0.05 0.15 0.1 0.251 0.1c0.1 0 0.2-0.05 0.251-0.1c0.15-0.15 0.15-0.351 0-0.501C18.133 12.827 18.083 11.825 18.033 11.374L18.033 11.374z" />
</g>
<g class="root" id="house_washing" data-name="house-washing">
	<path d="M16.412 8.383l0.332 1.67l1.744 0.399a0.087 0.087 0 0 1 0.07 0.086a0.088 0.088 0 0 1-0.074 0.084l-1.763 0.315l-0.421 1.652a0.091 0.091 0 0 1-0.089 0.066h0a0.091 0.091 0 0 1-0.087-0.07l-0.332-1.67l-1.744-0.399a0.085 0.085 0 0 1 0.005-0.17l1.763-0.315l0.421-1.652a0.085 0.085 0 0 1 0.091-0.066a0.09 0.09 0 0 1 0.087 0.07M4.387 13.718h3.449a0.383 0.383 0 1 0 0-0.763h-3.449a0.383 0.383 0 1 0 0 0.763m-2.737 1.339a0.393 0.393 0 0 0 0.403 0.38h8.306a0.383 0.383 0 1 0 0-0.763H2.054a0.393 0.393 0 0 0-0.403 0.38m9.875 5.094h-3.534a0.383 0.383 0 1 0 0 0.763h3.534a0.383 0.383 0 1 0 0-0.763m-5.381 0h-1.757a0.383 0.383 0 1 0 0 0.763h1.757a0.383 0.383 0 1 0 0-0.763m9.986 0H13.697a0.383 0.383 0 1 0 0 0.763h2.436a0.383 0.383 0 1 0 0-0.763m-6.937-1.643a0.393 0.393 0 0 0 0.403 0.38h5.513a0.383 0.383 0 1 0 0-0.763H9.598a0.393 0.393 0 0 0-0.403 0.38m-4.807-0.38a0.383 0.383 0 1 0 0 0.763h3.751a0.383 0.383 0 1 0 0-0.763ZM12.747 16.821a0.393 0.393 0 0 0-0.403-0.38H0.413a0.383 0.383 0 1 0 0 0.763h11.93a0.393 0.393 0 0 0 0.403-0.38m-8.358-4.495h0.807a0.383 0.383 0 1 0 0-0.763h-0.807a0.383 0.383 0 1 0 0 0.763m19.616 8.73l-3.357 0.034L5.009 6.277l-4.026 5.279a0.41 0.41 0 0 1-0.327 0.159a0.418 0.418 0 0 1-0.237-0.072a0.369 0.369 0 0 1-0.091-0.534l4.31-5.653l0.009-1.51l-3.038 3.868a0.41 0.41 0 0 1-0.324 0.154a0.416 0.416 0 0 1-0.24-0.076a0.368 0.368 0 0 1-0.084-0.535l3.352-4.27a0.411 0.411 0 0 1 0.339-0.154v-0.026l0.031 0.029a0.412 0.412 0 0 1 0.194 0.071a0.377 0.377 0 0 1 0.16 0.259l4.554 4.273V3.837a0.393 0.393 0 0 1 0.403-0.38h6.29a0.393 0.393 0 0 1 0.403 0.38v3.728a0.404 0.404 0 0 1-0.807 0V5.668H10.401v2.631ZM10.401 5.095h5.483V4.219h-5.483Zm10.31 13.983L14.318 13.022l-0.427 0.404l6.029 5.71Z" />
</g>
<g class="root" id="in_the_loop" data-name="in-the-loop">
	<path d="M13.399 13.366l-0.66 0.141l0.547 2.57L7.012 17.409L5.047 8.164a0.337 0.337 0 0 1 0.26-0.4L8.561 7.072l-0.141-0.66L5.166 7.103a1.013 1.013 0 0 0-0.779 1.201l2.316 10.896a1.013 1.013 0 0 0 1.201 0.779l5.612-1.193a1.013 1.013 0 0 0 0.779-1.201ZM13.376 18.127L7.763 19.319a0.337 0.337 0 0 1-0.4-0.26L7.152 18.069l6.273-1.333l0.211 0.991a0.337 0.337 0 0 1-0.26 0.4m-2.522-0.499l0.141 0.66l-0.991 0.211l-0.141-0.66ZM14.236 4.001c-2.978 0-5.4 1.969-5.4 4.388a3.932 3.932 0 0 0 1.325 2.874A13.6 13.6 4.364 0 1 9.774 13.587a0.681 0.681 0 0 0 0.203 0.749A0.583 0.583 4.364 0 0 10.339 14.464a0.689 0.689 0 0 0 0.345-0.097a21.835 21.835 0 0 0 2.343-1.705A6.569 6.569 4.364 0 0 14.236 12.777c2.978 0 5.4-1.969 5.4-4.388s-2.423-4.388-5.4-4.388m0 8.101a5.929 5.929 0 0 1-1.227-0.132l-0.159-0.034l-0.125 0.104a23.232 23.232 0 0 1-2.287 1.69A14.719 14.719 4.364 0 0 10.845 11.145l0.011-0.166l-0.125-0.109A3.305 3.305 4.364 0 1 9.51 8.388c0-2.047 2.12-3.713 4.726-3.713s4.726 1.666 4.726 3.713-2.12 3.713-4.726 3.713" />
</g>
<g class="root" id="kilt" data-name="kilt">
	<path d="M23.983 14.961c-0.013-0.056-0.03-0.108-0.052-0.16h0l-0.151-0.341l-0.233-0.531l-0.212-0.484l-0.233-0.531l-1.386-3.139s0-0.017-0.004-0.026l-0.57-1.287l-0.237-0.535l-0.216-0.488l-0.237-0.54l-0.22-0.496l-0.242-0.544l-0.427-0.963v-0.013c0-0.082-0.013-0.168-0.039-0.25h0c-0.056-0.177-0.168-0.319-0.307-0.419-0.138-0.099-0.307-0.155-0.484-0.155-0.086 0-0.173 0.013-0.255 0.039-0.423 0.134-0.842 0.246-1.265 0.35-0.194 0.047-0.384 0.095-0.579 0.134-0.177 0.035-0.354 0.069-0.527 0.099-0.194 0.035-0.389 0.065-0.579 0.095-0.177 0.026-0.354 0.052-0.531 0.073-0.013 0-0.03 0.004-0.043 0.004-0.181 0.022-0.358 0.039-0.535 0.056-0.022 0-0.047 0.004-0.069 0.009-0.013-0.065-0.03-0.125-0.056-0.181-0.073-0.173-0.194-0.315-0.345-0.419-0.151-0.104-0.337-0.164-0.535-0.164h-2.81c-0.13 0-0.259 0.026-0.371 0.073-0.173 0.073-0.315 0.194-0.419 0.345-0.06 0.091-0.108 0.194-0.134 0.302-0.017 0-0.035 0-0.056-0.004-0.013 0-0.026 0-0.039-0.004-0.168-0.017-0.332-0.035-0.492-0.056-0.03 0-0.056-0.009-0.086-0.013-0.181-0.022-0.358-0.047-0.531-0.073-0.203-0.03-0.393-0.06-0.579-0.095-0.186-0.03-0.363-0.065-0.527-0.095-0.207-0.039-0.401-0.078-0.579-0.117-0.039-0.009-0.086-0.017-0.125-0.026-0.363-0.082-0.648-0.155-0.842-0.207-0.099-0.026-0.173-0.047-0.224-0.06-0.026-0.009-0.043-0.013-0.056-0.017h-0.022v-0.009h-0.009c-0.078-0.026-0.16-0.035-0.237-0.035-0.177 0-0.345 0.056-0.484 0.155-0.138 0.099-0.25 0.246-0.307 0.423-0.026 0.082-0.039 0.164-0.039 0.246v0.013l-0.44 1.002l-0.242 0.544l-0.22 0.496l-0.242 0.544l-0.216 0.492l-0.237 0.535L0.873 12.975l-0.233 0.531l-0.212 0.484l-0.233 0.531l-0.125 0.281H0.065c-0.03 0.065-0.047 0.138-0.056 0.207-0.004 0.035-0.013 0.073-0.009 0.108 0 0.181 0.06 0.35 0.173 0.488 0.004 0.004 0.013 0.009 0.017 0.017 0.052 0.06 0.112 0.117 0.181 0.16 0.078 0.047 0.164 0.082 0.259 0.104l2.124 0.427l-0.151 0.341c-0.047 0.104-0.069 0.212-0.069 0.315 0 0.181 0.06 0.35 0.173 0.488 0.056 0.069 0.121 0.13 0.199 0.177 0.078 0.047 0.164 0.082 0.259 0.104l3.134 0.635l-0.112 0.635c-0.009 0.052-0.017 0.099-0.017 0.151 0 0.104 0.022 0.207 0.06 0.302 0.06 0.138 0.155 0.259 0.281 0.345 0.065 0.043 0.134 0.078 0.207 0.099 0.073 0.026 0.155 0.035 0.233 0.035h10.094c0.108 0 0.216-0.022 0.307-0.065 0.142-0.06 0.263-0.16 0.345-0.285 0.082-0.125 0.134-0.272 0.134-0.432 0-0.052-0.004-0.099-0.017-0.151h0l-0.112-0.635l3.134-0.635c0.095-0.017 0.181-0.056 0.259-0.104 0.117-0.073 0.207-0.173 0.272-0.285 0.065-0.117 0.099-0.246 0.099-0.38 0-0.104-0.022-0.216-0.069-0.315l-0.151-0.341l2.124-0.427c0.095-0.017 0.181-0.052 0.259-0.104 0.095-0.06 0.173-0.142 0.233-0.233 0.013-0.017 0.026-0.035 0.039-0.052 0.065-0.112 0.099-0.246 0.099-0.38 0-0.052-0.004-0.104-0.017-0.155ZM6.779 17.176v0.466l-0.367-0.078h0.017l-0.026 0.026s0.004-0.017 0.009-0.026l-3.057-0.617l0.311-0.708c1.032 0.151 2.068 0.276 3.108 0.371v0.561Zm0-1.14c-1.118-0.099-2.228-0.237-3.341-0.401-0.013 0-0.022-0.013-0.035-0.013l-2.582-0.522l0.181-0.414c1.913 0.371 3.838 0.652 5.772 0.825v0.527Zm0-1.105c-1.856-0.168-3.704-0.427-5.539-0.777l0.212-0.484c1.766 0.328 3.54 0.574 5.323 0.734v0.527Zm0-1.105c-1.705-0.151-3.402-0.384-5.09-0.695l1.982-4.49c1.032 0.151 2.068 0.276 3.104 0.371v4.814Zm0-5.388c-0.958-0.086-1.913-0.203-2.867-0.337l0.22-0.496c0.881 0.121 1.761 0.229 2.646 0.307v0.527Zm0-1.105c-0.803-0.073-1.606-0.168-2.405-0.276l0.22-0.496c0.73 0.095 1.455 0.177 2.184 0.246v0.527Zm0-1.105c-0.648-0.06-1.299-0.13-1.947-0.212l0.389-0.885c0.035-0.078 0.043-0.164 0.026-0.242h0s0-0.009 0.009-0.013c0 0 0.009 0 0.009 0h0.013s0 0 0.009 0.004c0.039 0.013 0.168 0.047 0.367 0.104 0.203 0.052 0.479 0.125 0.82 0.199 0.095 0.022 0.203 0.043 0.302 0.065v0.984Zm1.11 12.891h-0.527c0-0.747 0-1.766 0-2.461 0.177 0.013 0.354 0.026 0.527 0.039v2.422Zm0-3c-0.177-0.013-0.354-0.026-0.527-0.039 0-0.177 0-0.35 0-0.527 0.177 0.013 0.354 0.026 0.527 0.039v0.527Zm0-1.105c-0.177-0.013-0.354-0.026-0.527-0.039 0-0.177 0-0.35 0-0.527 0.177 0.013 0.354 0.026 0.527 0.039v0.527Zm0-1.105c-0.177-0.013-0.354-0.026-0.527-0.039 0-1.606 0-3.208 0-4.814 0.177 0.013 0.354 0.026 0.527 0.039v4.814Zm0-5.388c-0.177-0.013-0.354-0.026-0.527-0.039 0-0.177 0-0.35 0-0.527 0.177 0.013 0.354 0.026 0.527 0.039v0.527Zm0-1.105c-0.177-0.013-0.354-0.026-0.527-0.039 0-0.177 0-0.35 0-0.527 0.177 0.013 0.354 0.026 0.527 0.039v0.527Zm0-1.105c-0.177-0.013-0.354-0.026-0.527-0.039V5.364c0.168 0.03 0.345 0.06 0.527 0.091v0.863Zm1.11 12.805h-0.531v-2.383c0.177 0.009 0.354 0.022 0.531 0.03 0 0.661 0 1.619 0 2.357Zm0-2.931c-0.177-0.009-0.354-0.017-0.531-0.03v-0.527c0.177 0.009 0.354 0.022 0.531 0.03 0 0.177 0 0.35 0 0.527Zm0-1.105c-0.177-0.009-0.354-0.017-0.531-0.03v-0.527c0.177 0.009 0.354 0.022 0.531 0.03 0 0.177 0 0.35 0 0.527Zm0-1.105c-0.177-0.009-0.354-0.017-0.531-0.03V9.142c0.177 0.009 0.354 0.022 0.531 0.03 0 1.606 0 3.208 0 4.814Zm0-5.388c-0.177-0.009-0.354-0.017-0.531-0.03v-0.527c0.177 0.009 0.354 0.022 0.531 0.03 0 0.177 0 0.35 0 0.527Zm0-1.105c-0.177-0.009-0.354-0.017-0.531-0.03v-0.527c0.177 0.009 0.354 0.022 0.531 0.03 0 0.177 0 0.35 0 0.527Zm0-1.105c-0.177-0.009-0.354-0.017-0.531-0.03v-0.812c0.168 0.026 0.337 0.047 0.514 0.069h0.017v0.768Zm1.459-1.17v-0.104s0-0.039 0.009-0.056c0.013-0.026 0.03-0.047 0.056-0.065 0.026-0.017 0.052-0.026 0.082-0.026h2.81s0.039 0 0.056 0.013c0.026 0.009 0.047 0.03 0.065 0.052 0.017 0.026 0.026 0.047 0.026 0.078v1.321h0c0 0.026-0.004 0.043-0.013 0.06-0.009 0.026-0.03 0.047-0.056 0.065-0.026 0.017-0.052 0.026-0.078 0.026h-2.81s-0.039 0-0.056-0.013c-0.026-0.013-0.052-0.03-0.065-0.052-0.017-0.022-0.022-0.047-0.022-0.078h0V5.213Zm-0.881 0.471c0.022 0 0.043 0 0.065 0.004v0.725c-0.022 0-0.043 0-0.065 0v-0.73Zm4.84 13.439h-4.84v-2.331c1.615 0.065 3.229 0.06 4.84-0.013v2.344Zm0-2.918c-1.615 0.073-3.229 0.078-4.84 0.013v-0.527c1.615 0.065 3.229 0.06 4.84-0.013v0.527Zm0-1.105c-1.615 0.073-3.229 0.078-4.84 0.013v-0.527c1.615 0.065 3.229 0.06 4.84-0.013v0.527Zm0-1.105c-1.615 0.073-3.229 0.078-4.84 0.013V9.198c1.615 0.065 3.229 0.06 4.84-0.013v4.814Zm0-5.388c-1.615 0.073-3.229 0.078-4.84 0.013v-0.527c1.615 0.065 3.229 0.06 4.84-0.013v0.527Zm0-1.105c-1.615 0.073-3.229 0.078-4.84 0.013v-0.527c0.086 0 0.173 0.004 0.259 0.009 0.065 0.086 0.138 0.168 0.229 0.229 0.151 0.104 0.337 0.164 0.535 0.164h2.81c0.13 0 0.259-0.026 0.371-0.078 0.164-0.069 0.302-0.186 0.406-0.332 0.078 0 0.151-0.004 0.229-0.009v0.527Zm0-1.105s-0.035 0-0.052 0v-0.669s0.035 0 0.052-0.004v0.669Zm0.579-0.73s0.035 0 0.052-0.004c0.155-0.017 0.319-0.043 0.479-0.065v0.743c-0.177 0.013-0.354 0.022-0.531 0.03v-0.699Zm0 1.278c0.177-0.009 0.354-0.022 0.531-0.03 0 0.177 0 0.35 0 0.527-0.177 0.013-0.354 0.022-0.531 0.03v-0.527Zm0 1.105c0.177-0.009 0.354-0.022 0.531-0.03 0 0.177 0 0.35 0 0.527-0.177 0.013-0.354 0.022-0.531 0.03v-0.527Zm0 1.105c0.177-0.009 0.354-0.022 0.531-0.03 0 1.606 0 3.208 0 4.814-0.177 0.013-0.354 0.022-0.531 0.03V9.155Zm0 5.388c0.177-0.009 0.354-0.022 0.531-0.03 0 0.177 0 0.35 0 0.527-0.177 0.013-0.354 0.022-0.531 0.03v-0.527Zm0 1.105c0.177-0.009 0.354-0.022 0.531-0.03 0 0.177 0 0.35 0 0.527-0.177 0.013-0.354 0.022-0.531 0.03v-0.527Zm0.531 3.475h-0.531v-2.37c0.177-0.009 0.354-0.022 0.531-0.03 0 0.678 0 1.662 0 2.405Zm1.11 0h-0.527c0-0.747 0-1.757 0-2.444 0.177-0.013 0.354-0.026 0.527-0.043v2.487Zm0-3.065c-0.177 0.013-0.354 0.03-0.527 0.043 0-0.177 0-0.35 0-0.527 0.177-0.013 0.354-0.026 0.527-0.043v0.527Zm0-1.105c-0.177 0.013-0.354 0.03-0.527 0.043 0-0.177 0-0.35 0-0.527 0.177-0.013 0.354-0.026 0.527-0.043v0.527Zm0-1.105c-0.177 0.013-0.354 0.03-0.527 0.043 0-1.606 0-3.208 0-4.814 0.177-0.013 0.354-0.026 0.527-0.043v4.814Zm0-5.388c-0.177 0.013-0.354 0.03-0.527 0.043 0-0.177 0-0.35 0-0.527 0.177-0.013 0.354-0.026 0.527-0.043v0.527Zm0-1.105c-0.177 0.013-0.354 0.03-0.527 0.043 0-0.177 0-0.35 0-0.527 0.177-0.013 0.354-0.026 0.527-0.043v0.527Zm0-1.105c-0.177 0.013-0.354 0.03-0.527 0.043v-0.79c0.177-0.03 0.35-0.065 0.527-0.099v0.842Zm0.579-0.967c0.505-0.117 1.01-0.246 1.515-0.41h0.004s0.009 0 0.009 0c0 0 0.004 0 0.009 0.009h0v0.009c-0.004 0.026-0.009 0.052-0.009 0.078 0 0.056 0.013 0.112 0.035 0.164l0.376 0.846c-0.643 0.082-1.291 0.16-1.938 0.22V5.287Zm0 1.494c0.73-0.069 1.455-0.16 2.18-0.255l0.22 0.496c-0.799 0.112-1.597 0.212-2.396 0.285v-0.527Zm0 1.105c0.881-0.082 1.761-0.194 2.638-0.319l0.22 0.496c-0.95 0.138-1.904 0.259-2.858 0.35v-0.527Zm0 1.105c1.036-0.099 2.068-0.229 3.1-0.384l0.609 1.377s0 0.017 0.004 0.026l1.36 3.078c-1.684 0.315-3.376 0.557-5.073 0.717V8.986Zm0 5.388c1.779-0.168 3.549-0.427 5.306-0.764l0.212 0.484c-1.83 0.358-3.67 0.63-5.522 0.807v-0.527Zm0.354 3.19h0l-0.354 0.069v-1.053c1.036-0.099 2.068-0.229 3.095-0.384l0.328 0.747l-3.074 0.622Zm4.183-2.184c-1.507 0.268-3.018 0.479-4.537 0.622v-0.527c1.93-0.186 3.847-0.475 5.755-0.855l0.207 0.471l-1.425 0.289Z" />
</g>
<g class="root" id="local_offices" data-name="local-offices">
	<path d="M18.237 14.353L17.766 13.883a2.05 2.05 0 0 1-0.533-1.198a2.932 2.932 0 0 0-0.88-1.625l-1.175-1.176a0.935 0.935 0 0 0-1.412 0l-0.235 0.235l-1.177-1.177a1.013 1.013 0 0 0-0.687-0.302a0.962 0.962 0 0 0-0.705 0.283l-0.254 0.254a0.982 0.982 0 0 0-1.407-0.005a1.002 1.002 0 0 0-0.295 0.706a0.987 0.987 0 0 0 0.29 0.711h0l-0.216 0.216a1.026 1.026 0 0 0-0.019 1.431l0.235 0.235l-0.215 0.215a1.026 1.026 0 0 0-0.019 1.431l2.823 2.823a2.854 2.854 0 0 0 1.183 0.617a1.93 1.93 0 0 1 0.699 0.323l0.471 0.471l-0.235 0.235l1.412 1.412l0.471-0.471L14.943 18.588L18.472 15.059l0.941 0.941l0.471-0.471l-1.412-1.412ZM14.235 17.411a2.366 2.366 0 0 0-0.962-0.485a2.329 2.329 0 0 1-0.92-0.457l-2.823-2.823a0.357 0.357 0 0 1 0.019-0.49l0.215-0.216l1.648 1.647l0.471-0.471l-2.353-2.353a0.357 0.357 0 0 1 0.019-0.49l0.216-0.216l2.588 2.588l0.471-0.471L9.765 10.118a0.327 0.327 0 0 1-0.095-0.235A0.345 0.345 4.119 0 1 9.775 9.637a0.323 0.323 0 0 1 0.461 0.009l3.058 3.058l0.471-0.471L11.177 9.647l0.254-0.254a0.309 0.309 0 0 1 0.451 0.019l2.588 2.588l0.471-0.471L14.001 10.589l0.235-0.235a0.283 0.283 0 0 1 0.471 0l1.175 1.176a2.28 2.28 0 0 1 0.696 1.278A2.718 2.718 4.119 0 0 17.296 14.353l0.471 0.471L14.707 17.883ZM5.531 10.118L4.119 8.707l0.471-0.471l0.941 0.941L9.059 5.648L8.119 4.706L8.59 4.236l1.412 1.412l-0.235 0.235l0.471 0.471a2.051 2.051 0 0 0 1.198 0.533a2.936 2.936 0 0 1 1.625 0.879l1.176 1.177l-0.471 0.471l-1.175-1.176a2.284 2.284 0 0 0-1.278-0.696a2.715 2.715 0 0 1-1.546-0.716L9.295 6.354L6.236 9.413L6.708 9.884a2.372 2.372 0 0 1 0.485 0.961a2.32 2.32 0 0 0 0.457 0.921l0.94 0.94l-0.471 0.471L7.179 12.236A2.848 2.848 4.119 0 1 6.561 11.055a1.932 1.932 0 0 0-0.323-0.699L5.766 9.883Zm5.647 6.411l0.259 0.613c-0.164 0.069-0.333 0.127-0.499 0.181a1.93 1.93 0 0 0-0.699 0.325l-0.471 0.471l0.235 0.235l-1.412 1.412l-0.471-0.471l0.941-0.941L5.531 14.824L4.589 15.765L4.119 15.295L5.531 13.883l0.235 0.235l0.471-0.471a1.974 1.974 0 0 0 0.515-1.106l0.652 0.131a2.588 2.588 0 0 1-0.699 1.446L6.236 14.589l3.058 3.058L9.766 17.178a2.369 2.369 0 0 1 0.962-0.486c0.149-0.049 0.302-0.1 0.45-0.163m1.61-9.244l-0.131-0.652a1.971 1.971 0 0 0 1.108-0.515l0.471-0.471L14.001 5.412L15.413 4.001l0.471 0.471L14.943 5.412L18.472 8.941l0.941-0.941l0.471 0.471l-1.412 1.412l-0.235-0.235l-0.471 0.471a1.936 1.936 0 0 0-0.324 0.699c-0.055 0.167-0.112 0.336-0.181 0.499l-0.613-0.259c0.063-0.148 0.113-0.299 0.162-0.45A2.378 2.378 4.119 0 1 17.296 9.647l0.471-0.471L14.707 6.118L14.237 6.588a2.591 2.591 0 0 1-1.448 0.699" />
</g>
<g class="root" id="moss_removal" data-name="moss-removal">
	<path d="M23.962 18.971c-0.021-0.096-0.059-0.192-0.085-0.288-0.629-2.128-1.264-4.262-1.893-6.39-0.309-1.035-0.619-2.069-0.933-3.104-0.123-0.405-0.181-0.443-0.587-0.469-0.139-0.005-0.283 0-0.421 0-1.973 0-3.947 0-5.92 0-0.016 0-0.027 0-0.037 0h-0.293l-0.581 10.059H0.83c0.928-3.12 1.845-6.198 2.768-9.307h6.198v2.405c0.187 0.128 0.4 0.219 0.613 0.309V6.24h4.155v1.499c0 0.155 0.101 0.293 0.256 0.32 0.192 0.032 0.357-0.117 0.357-0.299V4.773c0-0.171-0.139-0.304-0.304-0.304h-4.763c-0.171 0-0.304 0.139-0.304 0.304V8.715c-1.424 0-5.83 0-6.267 0-0.299 0-0.501 0.112-0.576 0.416-0.027 0.117-0.075 0.229-0.107 0.347-0.773 2.592-1.541 5.179-2.315 7.771-0.171 0.576-0.352 1.147-0.507 1.728-0.101 0.373 0.021 0.523 0.4 0.549 0.101 0.011 0.203 0 0.299 0 3.787 0 12.747 0 16.539 0 0.64 0 0.651 0 0.832-0.613 0.629-2.112 1.253-4.219 1.883-6.331 0.203-0.677 0.411-1.355 0.619-2.037h0.107c0.811 2.731 1.627 5.456 2.459 8.262-0.453 0-0.827 0-1.205 0-0.523 0-1.045-0.011-1.563 0.011-0.309 0.011-0.459 0.16-0.437 0.384 0.021 0.256 0.203 0.32 0.427 0.32 1.061 0 2.123 0.011 3.189 0 0.373 0 0.475-0.171 0.389-0.555ZM10.409 5.083h4.155v0.699h-4.155V5.083Zm9.382 5.664c-0.597 0-1.152 0-1.712 0-0.16 0-0.32 0-0.48 0.011-0.208 0.021-0.331 0.155-0.331 0.363 0 0.213 0.144 0.325 0.347 0.336 0.299 0.011 0.603 0.005 0.901 0.011 0.32 0 0.635 0 1.045 0-0.128 0.443-0.24 0.837-0.368 1.285-0.277 0.005-0.549 0.016-0.821 0.021-0.443 0-0.88-0.011-1.323 0.011-0.256 0.011-0.379 0.165-0.357 0.384 0.021 0.219 0.165 0.315 0.363 0.32 0.4 0.011 0.8 0 1.2 0.005 0.213 0 0.432 0 0.709 0-0.144 0.469-0.267 0.864-0.4 1.312-0.603 0-1.179 0-1.755 0-0.16 0-0.341-0.032-0.475 0.027-0.123 0.053-0.245 0.208-0.267 0.336-0.016 0.085 0.128 0.251 0.235 0.288 0.181 0.064 0.389 0.064 0.592 0.069 0.453 0.011 0.907 0.011 1.445 0.011-0.128 0.469-0.229 0.843-0.352 1.291-0.427 0-0.843 0.011-1.253 0.011-0.299 0-0.603 0-0.901 0-0.213 0-0.357 0.107-0.363 0.315-0.005 0.213 0.133 0.331 0.347 0.336 0.4 0.005 0.8 0 1.2 0.005 0.213 0 0.427 0 0.763 0-0.155 0.523-0.267 0.901-0.379 1.275h-3.429c0.933-3.131 1.851-6.214 2.779-9.307h3.397l-0.341 1.275Zm-10.72 2.725l3.051 0.656l-3.051 0.656l-0.656 3.051l-0.656-3.051l-3.051-0.656l3.051-0.656l0.656-3.051l0.656 3.051Z" />
</g>
<g class="root" id="moss_removal_old" data-name="moss-removal-old">
	<path d="M23.938 20.209L18.789 11.713a0.381 0.381 0 0 0-0.037-0.045a0.431 0.431 0 0 0-0.029-0.035a0.483 0.483 0 0 0-0.05-0.038a0.417 0.417 0 0 0-0.037-0.028a0.411 0.411 0 0 0-0.063-0.026c-0.013-0.005-0.025-0.012-0.038-0.016a0.42 0.42 0 0 0-0.109-0.014H13.388V10.304a0.403 0.403 0 0 0-0.172-0.331L10.541 8.099a0.402 0.402 0 0 0-0.42-0.026L7.358 9.543L0.722 1.487A0.403 0.403 0.008 1 0 0.1 1.999L6.946 10.313h0l0.643 0.782A0.403 0.403 0.008 0 0 8.212 10.582l-0.332-0.403L10.279 8.903l2.301 1.611v0.897l-7.331 4.299L2.686 13.843V12.949l2.2-1.222A0.403 0.403 0.008 1 0 4.496 11.02L2.087 12.359a0.403 0.403 0 0 0-0.207 0.352v1.338a0.403 0.403 0 0 0 0.165 0.326l2.943 2.14a0.403 0.403 0 0 0 0.441 0.021L12.57 12.351H17.685l-0.736 1.214l-0.167 0.274L16.439 14.407l-0.596 0.985L15.333 16.232l-0.912 1.504l-0.907 1.498l-0.469 0.773H3.525l1.017-1.678l0.449 0.326l0.007 0.004c0.007 0.005 0.013 0.008 0.021 0.013a0.414 0.414 0 0 0 0.042 0.024l0.025 0.011a0.398 0.398 0 0 0 0.046 0.014a0.186 0.186 0 0 0 0.024 0.005A0.394 0.394 0.008 0 0 5.226 18.732h0a0.416 0.416 0 0 0 0.071-0.008l0.017-0.003a0.408 0.408 0 0 0 0.066-0.021l0.011-0.005a0.383 0.383 0 0 0 0.035-0.017l1.871-1.07a0.4 0.4 0 0 0 0.105-0.088l0.927-1.082a0.403 0.403 0 0 0 0.578 0.197l4.281-2.51a0.403 0.403 0 0 0 0.2-0.348V12.979a0.403 0.403 0 0 0-0.806 0v0.572l-0.799 0.469v-0.238a0.403 0.403 0 1 0-0.806 0v0.71l-1.871 1.096V15.385a0.403 0.403 0 0 0-0.709-0.263L6.837 16.945l-1.208 0.689V17.259a0.403 0.403 0 1 0-0.806 0v0.278L2.686 15.984V15.385a0.403 0.403 0 1 0-0.806 0V16.189a0.403 0.403 0 0 0 0.165 0.326l1.819 1.323L2.419 20.209a0.42 0.42 0 0 0 0.361 0.638H3.208v1.402A0.42 0.42 0.008 0 0 3.629 22.67H22.88a0.42 0.42 0 0 0 0.42-0.42V20.847h0.278a0.42 0.42 0 0 0 0.361-0.638M14.145 21.83H4.049V20.847H14.145Zm8.313 0H14.987V20.848h7.471ZM14.565 20.007H14.029l0.861-1.42l3.542-5.846h0L22.832 20.007ZM6.12 14.136a0.403 0.403 0 0 1-0.18 0.541l-0.536 0.268a0.402 0.402 0 0 1-0.404-0.025l-0.803-0.536a0.403 0.403 0 1 1 0.446-0.671l0.608 0.406l0.326-0.164a0.403 0.403 0 0 1 0.541 0.18m0.131-2.24L0.1 4.406a0.403 0.403 0 0 1 0.624-0.512l6.153 7.491a0.403 0.403 0 1 1-0.624 0.512" />
</g>
<g class="root" id="pressure_washing" data-name="pressure-washing">
	<path d="M23.456 0.433H0.542a0.543 0.543 0 0 0-0.542 0.543V23.567h1.952L15.126 8.593c-1.648 2.77-6.689 11.064-9.015 14.972h17.368V21.777l-9.771 0.232l0.082-0.471l9.69 0.229V20.148l-9.489 0.236l0.085-0.496l9.403 0.234V18.627l-9.225 0.237L16.357 6.76h1.729a0.542 0.542 0 1 0 0-1.086h-3.485a0.542 0.542 0 1 0 0 1.086h1.059L1.085 23.261V1.519h17.293l-2.511 3.819h2.447l2.511-3.819h2.089V10.7a0.543 0.543 0 0 0 1.086 0v-9.724a0.543 0.543 0 0 0-0.543-0.543M12.679 23.158H7.538l7.684-14.614Zm-2.165-15.419a4.447 4.447 0 0 0-3.714 3.724a4.514 4.514 0 0 0-3.597-3.723a4.44 4.44 0 0 0 3.594-3.737a4.405 4.405 0 0 0 3.718 3.737m-0.281-1.59a1.441 1.441 0 0 0-1.059-1.12a1.405 1.405 0 0 0 1.036-0.969a6.615 6.615 0 0 0 0.434 0.625a1.226 1.226 0 0 0 0.65 0.348a1.411 1.411 0 0 0-1.061 1.116m5.407 12.231l7.835-1.733v1.934Z" />
</g>
<g class="root" id="service_checkmark" data-name="service-checkmark">
	<path d="M20.102 20.625a0.523 0.523 0 0 0 0.008-1.045h-0.008a0.523 0.523 0 0 0 0 1.045" />
	<path d="M23.984 11.992a12.014 12.014 0 0 0-1.402-5.615l-0.017-0.033L23.51 5.398a1.668 1.668 0 0 0-2.359-2.359L20.568 3.62l-0.036-0.036A12.059 12.059 0 0 0 11.992 0h-0.002a11.992 11.992 0 0 0 0.002 23.984a11.92 11.92 0 0 0 6.871-2.165a0.496 0.496 0 0 0 0.239-0.458a0.578 0.578 0 0 0-0.325-0.465a0.492 0.492 0 0 0-0.511 0.067A10.948 10.948 0 0 1 4.249 4.248A10.873 10.873 0 0 1 11.99 1.045h0.002a11.009 11.009 0 0 1 7.801 3.278l0.036 0.036l-0.884 0.883l-0.036-0.037A9.748 9.748 0 0 0 11.992 2.294h-0.006a9.626 9.626 0 0 0-3.631 0.707a0.493 0.493 0 0 0-0.34 0.393a0.578 0.578 0 0 0 0.214 0.529a0.495 0.495 0 0 0 0.516 0.047a8.592 8.592 0 0 1 3.245-0.632a8.697 8.697 0 0 1 6.179 2.607l0.035 0.036l-0.035 0.036L11.788 12.399l-2.064-2.063A1.671 1.671 0 0 0 7.362 12.699l3.245 3.242a1.671 1.671 0 0 0 2.359 0q3.513-3.513 7.025-7.025l0.056-0.055l0.027 0.073A8.636 8.636 0 0 1 11.992 20.645A8.653 8.653 0 0 1 3.971 8.745a0.493 0.493 0 0 0-0.046-0.517a0.575 0.575 0 0 0-0.529-0.215a0.491 0.491 0 0 0-0.392 0.339a9.696 9.696 0 0 0 15.846 10.494A9.64 9.64 0 0 0 20.859 8.094l-0.014-0.032l0.941-0.94l0.031 0.064A10.987 10.987 0 0 1 22.94 11.992A10.876 10.876 0 0 1 20.962 18.263a0.495 0.495 0 0 0-0.067 0.512a0.579 0.579 0 0 0 0.466 0.325a0.491 0.491 0 0 0 0.458-0.238a11.913 11.913 0 0 0 2.165-6.872m-11.755 3.211a0.61 0.61 0 0 1-0.883 0L8.101 11.958a0.612 0.612 0 0 1 0-0.885a0.61 0.61 0 0 1 0.884 0c0.811 0.813 2.433 2.435 2.433 2.435a0.522 0.522 0 0 0 0.739 0L21.889 3.776a0.61 0.61 0 0 1 0.883 0a0.61 0.61 0 0 1 0 0.883Z" />
</g>
<g class="root" id="shield" data-name="shield">
	<path d="M9.655 13.521h0.87v0.873A0.892 0.892 2.202 0 0 11.412 15.285H12.588a0.892 0.892 0 0 0 0.889-0.892V13.521h0.87a0.892 0.892 0 0 0 0.889-0.892v-1.176a0.892 0.892 0 0 0-0.889-0.892H13.475V9.687A0.892 0.892 2.202 0 0 12.588 8.795H11.412a0.892 0.892 0 0 0-0.889 0.892v0.872H9.655A0.892 0.892 2.202 0 0 8.767 11.452v1.176A0.892 0.892 2.202 0 0 9.655 13.521m1.29-2.116a0.422 0.422 0 0 0 0.42-0.422V9.638h1.27v1.343a0.422 0.422 0 0 0 0.42 0.422h1.339v1.275H13.055a0.422 0.422 0 0 0-0.42 0.422v1.343H11.365V13.1a0.422 0.422 0 0 0-0.42-0.422H9.607V11.404Zm-2.696-6.649a0.414 0.414 0 0 0 0.233-0.071l0.011-0.008a0.422 0.422 0 0 0 0.105-0.577A0.419 0.419 2.202 0 0 8.331 3.92a0.427 0.427 0 0 0-0.083-0.008a0.417 0.417 0 0 0-0.232 0.071a0.423 0.423 0 0 0-0.118 0.585a0.419 0.419 0 0 0 0.35 0.188m-1.826 7.286A5.578 5.578 2.202 1 0 12 6.442A5.595 5.595 2.202 0 0 6.422 12.04M12 7.285A4.755 4.755 2.202 1 1 7.262 12.04A4.752 4.752 2.202 0 1 12 7.285m7.691-1.419L12.189 2.048a0.422 0.422 0 0 0-0.379 0L9.941 2.999A0.422 0.422 2.202 0 0 10.001 3.775a0.419 0.419 0 0 0 0.321-0.025L12 2.898l0.022 0.011l7.059 3.592l0 6.151A8.087 8.087 2.202 0 1 17.051 17.899a10.992 10.992 0 0 1-5.035 3.312L12 21.216l-0.014-0.005a10.994 10.994 0 0 1-5.036-3.312A8.088 8.088 2.202 0 1 4.918 12.651v-6.153l1.638-0.833a0.419 0.419 0 0 0 0.21-0.245a0.422 0.422 0 0 0-0.4-0.553a0.419 0.419 0 0 0-0.189 0.045L4.307 5.864a0.419 0.419 0 0 0-0.23 0.376V12.651a8.922 8.922 0 0 0 2.234 5.794a11.833 11.833 0 0 0 5.57 3.615a0.417 0.417 0 0 0 0.241 0A11.833 11.833 2.202 0 0 17.69 18.445A8.919 8.919 2.202 0 0 19.922 12.651l0-6.41a0.42 0.42 0 0 0-0.23-0.376M21.798 5.673a1.38 1.38 0 0 0-0.694-1.199l-0.017-0.009L12.655 0.174A1.318 1.318 2.202 0 0 11.359 0.167L2.967 4.435A1.384 1.384 2.202 0 0 2.202 5.674v6.976a10.781 10.781 0 0 0 2.679 7.015A13.697 13.697 2.202 0 0 11.625 23.946a1.311 1.311 0 0 0 0.724 0.006A13.698 13.698 2.202 0 0 19.12 19.665A10.785 10.785 2.202 0 0 21.798 12.651ZM18.479 19.118A12.852 12.852 2.202 0 1 12.128 23.14a0.486 0.486 0 0 1-0.129 0.017a0.473 0.473 0 0 1-0.138-0.02A12.859 12.859 2.202 0 1 5.521 19.118a9.948 9.948 0 0 1-2.478-6.467v-6.976a0.533 0.533 0 0 1 0.293-0.48l8.426-4.285a0.494 0.494 0 0 1 0.484 0.003l0.019 0.01L20.696 5.213a0.535 0.535 0 0 1 0.26 0.461l0 6.976a9.948 9.948 0 0 1-2.478 6.467" />
</g>
<g class="root" id="shield_check" data-name="shield-check">
	<path d="M12 24a1.831 1.831 0 0 1-0.9-0.234l-4.919-2.772l-0.016-0.009A8.364 8.364 2.24 0 1 2.24 13.894V2.935a0.404 0.404 0 0 1 0.317-0.394A80.643 80.643 2.24 0 0 11.861 0.025a0.403 0.403 0 0 1 0.266-0.005c0.036 0.012 3.615 1.193 9.321 2.52A0.404 0.404 2.24 0 1 21.76 2.935V13.894a8.367 8.367 0 0 1-3.924 7.09l-0.016 0.009l-4.919 2.772a1.832 1.832 0 0 1-0.901 0.234M6.585 20.295l4.911 2.768a1.033 1.033 0 0 0 1.007 0l4.91-2.768a7.558 7.558 0 0 0 3.539-6.4V3.255c-4.958-1.163-8.261-2.203-8.947-2.424A84.376 84.376 2.24 0 1 3.047 3.259V13.894A7.56 7.56 2.24 0 0 6.585 20.295m11.036 0.347h0ZM5.003 13.399V4.94A64.86 64.86 2.24 0 0 12.006 3.017c0.315 0.103 1.171 0.376 2.455 0.742a0.404 0.404 0 1 0 0.221-0.777C13.063 2.521 12.138 2.21 12.128 2.207a0.405 0.405 0 0 0-0.269 0.005A63.29 63.29 2.24 0 1 4.512 4.223a0.403 0.403 0 0 0-0.315 0.394V13.399a0.404 0.404 0 0 0 0.807 0M12.755 21.377L16.645 19.156l0.016-0.009a6.763 6.763 0 0 0 3.142-5.747V10.934a0.404 0.404 0 0 0-0.807 0v2.466a5.961 5.961 0 0 1-2.759 5.06L12.355 20.676a0.721 0.721 0 0 1-0.711 0L7.754 18.454a0.404 0.404 0 1 0-0.401 0.703l3.89 2.222a1.53 1.53 0 0 0 1.512 0M9.783 16.369a0.404 0.404 0 0 1-0.286-0.117l-2.59-2.591a0.403 0.403 0 0 1 0-0.571l1.165-1.165a0.404 0.404 0 0 1 0.572 0l1.158 1.158L16.559 6.323a0.404 0.404 0 0 1 0.582 0.011L18.246 7.524a0.404 0.404 0 0 1-0.01 0.561L10.068 16.25a0.403 0.403 0 0 1-0.286 0.117m-2.019-2.994l2.019 2.019L17.387 7.788l-0.554-0.597L10.087 13.938a0.404 0.404 0 0 1-0.572 0l-1.158-1.158Z" />
</g>
<g class="root" id="snow_removal" data-name="snow-removal">
	<path xmlns="http://www.w3.org/2000/svg" class="cls-1" d="M24 19.84l-3.152 0.459l-0.459 3.152l-0.459-3.152l-3.152-0.459l3.152-0.459l0.459-3.152l0.459 3.152l3.152 0.459ZM0.379 10.933c0.208 0 0.379-0.171 0.379-0.379V2.901h8.117l-0.128-0.757H0.379c-0.208 0-0.379 0.171-0.379 0.379v8.037c0 0.208 0.171 0.379 0.379 0.379Zm6.283-2.016c0.085 0.016 0.155-0.027 0.181-0.112 0.021-0.085-0.016-0.155-0.096-0.192-0.053-0.021-0.117-0.032-0.176-0.048-0.149-0.043-0.304-0.08-0.501-0.133 0.149-0.096 0.251-0.16 0.352-0.224 0.069-0.048 0.107-0.117 0.064-0.203-0.048-0.096-0.128-0.107-0.219-0.069-0.053 0.021-0.107 0.053-0.16 0.085-0.128 0.075-0.251 0.155-0.379 0.219-0.059 0.032-0.133 0.059-0.192 0.048-0.192-0.037-0.384-0.096-0.608-0.155 0.149-0.155 0.277-0.283 0.395-0.411 0.069-0.075 0.144-0.107 0.251-0.101 0.187 0.005 0.379 0 0.571-0.005 0.128-0.005 0.192-0.075 0.192-0.165 0-0.096-0.064-0.155-0.197-0.16-0.117-0.005-0.235 0-0.368 0 0.037-0.048 0.059-0.075 0.085-0.096 0.128-0.128 0.256-0.256 0.384-0.389 0.069-0.075 0.069-0.16 0-0.229-0.064-0.064-0.144-0.064-0.213-0.011-0.064 0.053-0.123 0.123-0.187 0.181-0.096 0.091-0.176 0.192-0.304 0.267-0.005-0.139-0.011-0.245-0.021-0.357-0.005-0.101-0.059-0.165-0.16-0.165-0.101 0-0.149 0.075-0.165 0.171-0.005 0.043 0 0.085 0 0.128-0.005 0.203 0.043 0.432-0.032 0.608-0.075 0.176-0.272 0.304-0.416 0.453-0.005 0.005-0.016 0.005-0.053 0.027-0.053-0.203-0.101-0.384-0.155-0.565-0.027-0.085 0-0.149 0.043-0.219 0.096-0.16 0.192-0.325 0.283-0.496 0.059-0.112 0.043-0.197-0.037-0.251-0.08-0.048-0.165-0.027-0.24 0.08-0.064 0.091-0.117 0.187-0.197 0.315-0.037-0.133-0.069-0.229-0.096-0.331-0.032-0.107-0.059-0.219-0.091-0.325-0.032-0.096-0.117-0.128-0.208-0.101-0.085 0.027-0.123 0.096-0.101 0.187 0.011 0.059 0.032 0.117 0.048 0.176 0.043 0.155 0.08 0.304 0.133 0.496-0.144-0.08-0.245-0.144-0.352-0.197-0.075-0.037-0.155-0.048-0.208 0.037-0.048 0.08-0.048 0.165 0.032 0.235 0.048 0.037 0.101 0.069 0.155 0.096 0.117 0.069 0.24 0.133 0.357 0.203 0.053 0.032 0.117 0.064 0.139 0.112 0.08 0.203 0.139 0.411 0.176 0.656-0.192-0.048-0.347-0.096-0.507-0.133-0.123-0.027-0.197-0.085-0.256-0.192-0.091-0.165-0.187-0.331-0.288-0.491-0.053-0.085-0.133-0.112-0.224-0.064-0.096 0.053-0.091 0.139-0.048 0.224 0.053 0.107 0.112 0.208 0.192 0.357-0.128-0.032-0.208-0.053-0.288-0.075-0.128-0.032-0.251-0.069-0.379-0.096-0.101-0.021-0.187 0.032-0.197 0.117-0.011 0.085 0.016 0.155 0.107 0.187 0.059 0.021 0.117 0.037 0.176 0.048 0.149 0.037 0.293 0.08 0.485 0.128-0.133 0.085-0.235 0.149-0.336 0.213-0.08 0.059-0.107 0.139-0.059 0.224 0.053 0.091 0.139 0.091 0.224 0.048 0.037-0.021 0.075-0.043 0.112-0.064 0.133-0.075 0.267-0.16 0.405-0.224 0.064-0.032 0.149-0.059 0.219-0.048 0.187 0.032 0.363 0.091 0.587 0.149-0.171 0.171-0.309 0.325-0.464 0.459-0.043 0.037-0.128 0.048-0.192 0.048-0.187 0.005-0.379 0-0.571 0.011-0.128 0.005-0.192 0.075-0.187 0.165 0.005 0.096 0.075 0.155 0.197 0.16 0.112 0 0.219 0 0.363 0-0.037 0.053-0.059 0.075-0.08 0.101-0.128 0.128-0.251 0.261-0.379 0.389-0.075 0.075-0.08 0.155-0.011 0.229 0.069 0.069 0.155 0.069 0.235 0.005 0.048-0.037 0.085-0.085 0.128-0.128 0.112-0.112 0.219-0.224 0.352-0.357 0.005 0.171 0.011 0.299 0.016 0.427 0.005 0.091 0.075 0.149 0.155 0.133 0.053-0.005 0.112-0.064 0.155-0.112 0.021-0.027 0.011-0.08 0.011-0.123 0-0.181 0-0.363 0-0.544 0-0.059 0.011-0.128 0.043-0.165 0.133-0.149 0.283-0.293 0.448-0.464 0.064 0.229 0.128 0.416 0.165 0.608 0.011 0.059-0.016 0.133-0.048 0.187-0.091 0.176-0.197 0.347-0.293 0.517-0.048 0.085-0.043 0.165 0.043 0.229 0.08 0.059 0.171 0.037 0.24-0.064 0.064-0.091 0.123-0.192 0.208-0.32 0.043 0.149 0.069 0.256 0.101 0.363 0.027 0.101 0.053 0.203 0.091 0.293 0.032 0.08 0.101 0.117 0.192 0.085 0.085-0.027 0.128-0.091 0.112-0.176-0.011-0.059-0.027-0.117-0.043-0.176-0.043-0.155-0.08-0.309-0.133-0.491 0.149 0.08 0.256 0.144 0.373 0.197 0.08 0.037 0.155 0.011 0.197-0.069 0.048-0.08 0.027-0.149-0.037-0.208-0.048-0.037-0.096-0.069-0.149-0.101-0.128-0.075-0.256-0.139-0.384-0.213-0.059-0.037-0.123-0.08-0.144-0.139-0.064-0.192-0.112-0.395-0.176-0.624 0.208 0.053 0.368 0.107 0.539 0.139 0.112 0.021 0.181 0.08 0.235 0.176 0.091 0.165 0.187 0.331 0.288 0.491 0.064 0.101 0.16 0.123 0.24 0.064 0.091-0.064 0.085-0.144 0.043-0.229-0.053-0.101-0.112-0.203-0.192-0.347 0.133 0.032 0.213 0.059 0.299 0.08 0.128 0.032 0.251 0.069 0.379 0.091Zm1.435-3.541c0.048 0.011 0.091-0.016 0.101-0.064 0.016-0.048-0.005-0.091-0.053-0.107-0.032-0.016-0.064-0.021-0.101-0.027-0.085-0.021-0.176-0.048-0.288-0.075 0.085-0.053 0.144-0.091 0.203-0.128 0.037-0.027 0.059-0.069 0.037-0.117-0.027-0.053-0.075-0.064-0.128-0.043-0.032 0.011-0.064 0.032-0.091 0.048-0.075 0.043-0.144 0.091-0.219 0.128-0.032 0.016-0.075 0.032-0.112 0.027-0.112-0.021-0.219-0.053-0.352-0.091 0.085-0.091 0.16-0.16 0.229-0.24 0.043-0.043 0.085-0.064 0.144-0.059 0.107 0 0.219 0 0.325 0 0.075 0 0.112-0.043 0.112-0.096 0-0.059-0.037-0.091-0.112-0.091-0.069 0-0.133 0-0.213 0 0.021-0.027 0.037-0.043 0.048-0.059 0.075-0.075 0.149-0.149 0.219-0.224 0.043-0.043 0.043-0.091 0-0.133-0.037-0.037-0.08-0.037-0.123 0-0.037 0.032-0.069 0.069-0.107 0.101-0.053 0.053-0.101 0.112-0.176 0.155 0-0.08-0.005-0.144-0.011-0.208 0-0.059-0.032-0.096-0.096-0.096-0.059 0-0.085 0.043-0.096 0.096 0 0.027 0 0.048 0 0.075 0 0.117 0.027 0.251-0.021 0.352-0.043 0.101-0.155 0.176-0.24 0.261 0 0-0.011 0-0.032 0.016-0.032-0.117-0.059-0.219-0.091-0.325-0.016-0.048 0-0.085 0.027-0.123 0.059-0.096 0.112-0.187 0.16-0.283 0.037-0.064 0.027-0.117-0.021-0.144-0.048-0.027-0.096-0.016-0.139 0.048-0.037 0.053-0.069 0.107-0.112 0.181-0.021-0.075-0.043-0.133-0.059-0.187-0.016-0.064-0.032-0.123-0.053-0.187-0.021-0.059-0.064-0.075-0.117-0.059-0.048 0.016-0.069 0.053-0.059 0.107 0.005 0.032 0.016 0.069 0.027 0.101 0.021 0.085 0.048 0.176 0.075 0.283-0.08-0.048-0.139-0.085-0.203-0.112-0.043-0.021-0.091-0.027-0.117 0.021-0.027 0.048-0.027 0.096 0.016 0.133 0.027 0.021 0.059 0.037 0.085 0.059 0.069 0.037 0.139 0.075 0.208 0.117 0.027 0.016 0.069 0.037 0.08 0.064 0.048 0.117 0.08 0.235 0.101 0.379-0.112-0.027-0.203-0.059-0.293-0.075-0.069-0.016-0.112-0.048-0.144-0.112-0.053-0.096-0.107-0.192-0.165-0.283-0.032-0.048-0.08-0.064-0.128-0.037-0.053 0.032-0.053 0.08-0.027 0.128 0.032 0.059 0.064 0.117 0.112 0.203-0.075-0.021-0.117-0.032-0.165-0.043-0.075-0.016-0.144-0.043-0.219-0.053-0.059-0.011-0.107 0.021-0.112 0.069-0.005 0.048 0.011 0.091 0.059 0.107 0.032 0.011 0.064 0.021 0.101 0.027 0.085 0.021 0.171 0.043 0.283 0.075-0.08 0.048-0.133 0.085-0.192 0.123-0.048 0.032-0.064 0.08-0.032 0.128 0.032 0.053 0.08 0.053 0.128 0.027 0.021-0.011 0.043-0.021 0.064-0.037 0.08-0.043 0.155-0.091 0.235-0.128 0.037-0.016 0.085-0.032 0.128-0.027 0.107 0.021 0.208 0.053 0.336 0.085-0.096 0.101-0.176 0.187-0.267 0.267-0.027 0.021-0.075 0.027-0.112 0.027-0.107 0-0.219 0-0.325 0-0.075 0-0.112 0.043-0.107 0.096 0 0.053 0.043 0.091 0.112 0.091 0.064 0 0.128 0 0.208 0-0.021 0.027-0.032 0.043-0.043 0.059-0.075 0.075-0.144 0.149-0.219 0.224-0.043 0.043-0.048 0.091 0 0.133 0.043 0.043 0.091 0.043 0.133 0 0.027-0.021 0.048-0.048 0.075-0.075 0.064-0.064 0.128-0.128 0.203-0.203 0 0.096 0 0.171 0.011 0.245 0 0.053 0.043 0.085 0.091 0.08 0.032 0 0.064-0.037 0.085-0.064 0.011-0.016 0.005-0.048 0.005-0.075 0-0.107 0-0.208 0-0.315 0-0.032 0.005-0.075 0.027-0.096 0.08-0.085 0.16-0.171 0.261-0.267 0.037 0.133 0.075 0.24 0.096 0.352 0.005 0.032-0.011 0.075-0.027 0.107-0.053 0.101-0.112 0.197-0.171 0.299-0.027 0.048-0.021 0.096 0.021 0.133 0.048 0.032 0.096 0.021 0.139-0.037 0.037-0.053 0.069-0.112 0.117-0.187 0.027 0.085 0.043 0.149 0.059 0.208 0.016 0.059 0.032 0.117 0.053 0.171 0.021 0.048 0.059 0.064 0.112 0.048 0.048-0.016 0.075-0.053 0.064-0.101-0.005-0.032-0.016-0.069-0.021-0.101-0.021-0.091-0.048-0.176-0.075-0.283 0.085 0.048 0.149 0.085 0.213 0.112 0.048 0.021 0.085 0.005 0.112-0.037 0.027-0.043 0.016-0.085-0.021-0.117-0.027-0.021-0.059-0.043-0.085-0.059-0.075-0.043-0.149-0.08-0.219-0.123-0.032-0.021-0.069-0.048-0.085-0.08-0.037-0.112-0.064-0.224-0.101-0.357 0.117 0.032 0.213 0.059 0.309 0.08 0.064 0.011 0.107 0.048 0.133 0.101 0.053 0.096 0.107 0.192 0.165 0.283 0.037 0.059 0.091 0.069 0.139 0.037 0.053-0.037 0.048-0.08 0.021-0.133-0.032-0.059-0.064-0.117-0.112-0.197 0.075 0.021 0.123 0.032 0.171 0.043 0.075 0.016 0.144 0.037 0.219 0.053Zm8.693 13.259c-0.928 0.069-1.856 0.133-2.784 0.203-0.976 0.075-1.952 0.149-2.928 0.229-0.603 0.048-1.205 0.096-1.813 0.144-0.203 0.016-0.4 0.027-0.603 0.043-0.219 0.016-0.437 0.032-0.656 0.048-0.021 0-0.043 0-0.069 0-0.128 0-0.288-0.037-0.411-0.213l-0.059-0.085c-0.08-0.117-0.16-0.235-0.24-0.357H0.069v-2.464l6.027 0.149c-0.005-0.027-0.016-0.059-0.021-0.085-0.016-0.075-0.043-0.149-0.075-0.229L0.069 16.176v-1.045l5.845 0.149c0-0.165 0-0.336 0-0.507H0.245c-0.053-0.027-0.096-0.053-0.133-0.085v-2.267c0.4-0.267 0.939-0.432 1.536-0.432 0.507 0 0.976 0.123 1.349 0.32 0.283-0.272 0.693-0.443 1.147-0.443 0.587 0 1.099 0.283 1.36 0.704 0.117-0.128 0.256-0.208 0.411-0.208s0.309 0.085 0.427 0.224v-0.011h0.005l0.011-0.043c0.075-0.245 0.149-0.432 0.229-0.603l0.032-0.069h0.005c0.011-0.027 0.027-0.053 0.037-0.08 0.048-0.096 0.085-0.181 0.112-0.267 0.096-0.341 0.347-0.395 0.581-0.4 1.141-0.037 2.283-0.075 3.424-0.117L9.013 0.549h0.72l1.824 10.736h0.304l-0.059-0.331L10.037 0.549h0.331l0.272 1.595h5.733c0.208 0 0.379 0.171 0.379 0.379v8.251c0.128-0.005 0.261-0.011 0.389-0.021 0.197-0.011 0.389-0.021 0.587-0.032 0.24-0.005 0.389 0.011 0.464 0.117 0.075 0.112 0.032 0.267-0.064 0.496-0.261 0.619-0.549 1.355-0.693 2.139-0.187 1.019-0.059 1.968 0.379 2.821 0.181 0.352 0.389 0.693 0.597 1.024 0.091 0.144 0.181 0.293 0.267 0.437 0.016 0.027 0.037 0.059 0.059 0.085 0.021 0.027 0.037 0.053 0.059 0.08h0c0.091 0.144 0.165 0.293 0.101 0.421-0.064 0.128-0.235 0.155-0.389 0.165-0.571 0.043-1.147 0.085-1.717 0.123Zm-4.656-7.691h0.192c1.221-0.053 2.443-0.096 3.669-0.144V2.901h-5.227l1.365 8.048Zm-5.6 6.539c-0.069-0.133-0.133-0.272-0.192-0.405 0 0.043 0.011 0.085 0.016 0.123l-5.888 0.139l6.064 0.144Zm1.557 1.227c-0.037-0.059-0.075-0.117-0.112-0.176-0.139-0.213-0.272-0.427-0.4-0.64-0.875-1.477-1.083-2.997-0.619-4.528 0.112-0.368 0.245-0.736 0.373-1.088 0.069-0.187 0.133-0.373 0.203-0.56 0-0.005 0-0.016 0-0.027h-0.203c-0.256 0.587-0.533 1.28-0.709 2.011-0.219 0.907-0.219 1.717 0 2.48 0.256 0.901 0.747 1.675 1.269 2.448 0.053 0.08 0.107 0.096 0.203 0.085Zm0.091-0.933l1.771-0.123c-0.715-1.536-0.256-4.608-0.027-5.765-0.117 1.136-0.245 4.683 0.704 5.717l1.685-0.117c-0.736-1.328-0.304-4.229-0.096-5.301-0.112 1.072-0.229 4.544 0.779 5.253l1.392-0.096c-0.533-1.611-0.117-4.373 0.096-5.456-0.112 1.045-0.224 4.123 0.496 5.419l2.608-0.181l-0.075-0.16c-0.101-0.213-0.203-0.427-0.299-0.635-0.32-0.704-0.464-1.435-0.427-2.181 0.032-0.661 0.176-1.333 0.443-2.048 0.075-0.197 0.144-0.4 0.224-0.608l0.069-0.187l-9.344 0.347c-0.464 1.067-0.725 1.909-0.843 2.741-0.16 1.099 0.112 2.176 0.853 3.381Zm9.952 0.203c-0.123-0.261-0.304-0.352-0.587-0.288-0.096 0.021-0.187 0.021-0.277 0.021-0.048 0-0.096 0-0.139 0l-1.483 0.107c-0.907 0.064-1.819 0.133-2.725 0.192-0.459 0.032-0.912 0.064-1.371 0.091-0.475 0.032-0.949 0.064-1.424 0.096-0.389 0.027-0.773 0.059-1.184 0.096l-0.411 0.032l0.24 0.347l9.371-0.699Z" />
</g>
<g class="root" id="snow_removal_old" data-name="snow-removal-old">
	<path d="M21.245 2.382a1.309 1.309 0 0 0-0.68-0.764Q19.216 0.89 17.862 0.175a1.381 1.381 0 0 0-1.108-0.103a1.297 1.297 0 0 0-0.756 0.721c-0.483 1.108-0.448 2.848 0.572 3.893a0.406 0.406 0 0 1 0.083 0.538c-0.312 0.752-0.611 1.509-0.912 2.266L13.867 12.175L11.204 10.631c-0.632-0.369-1.266-0.738-1.902-1.101a0.812 0.812 0 0 0-0.784-0.049a0.849 0.849 0 0 0-0.425 0.697a1.307 1.307 0 0 0 0.001 0.205c0.003 0.04 0.006 0.08 0.006 0.12 0 0.109 0 0.217 0 0.326a5.627 5.627 0 0 1-0.03 0.783a8.644 8.644 0 0 1-0.183 0.892c-0.021 0.089-0.043 0.179-0.064 0.27l-0.415-0.191c-0.388-0.176-0.755-0.343-1.101-0.535a1.204 1.204 0 0 0-1.394 0.115a2.447 2.447 0 0 0-0.761 0.818a4.63 4.63 0 0 0-0.419 1.356a2.665 2.665 0 0 0 0.541 2.105a2.719 2.719 0 0 0 1.972 1.009a0.578 0.578 0 0 1 0.49 0.28a7.754 7.754 0 0 0 2.168 2.012c0.047 0.03 0.093 0.063 0.157 0.108-0.074 0.041-0.143 0.083-0.211 0.123a4.981 4.981 0 0 1-0.724 0.374a10.966 10.966 0 0 1-1.164 0.345l-0.289 0.074c-0.396 0.105-0.433 0.359-0.394 0.554 0.05 0.25 0.236 0.364 0.544 0.344 0.034-0.003 0.069-0.004 0.103-0.01a5.968 5.968 0 0 0 2.874-1.248a0.476 0.476 0 0 1 0.46-0.126a2.277 2.277 0 0 0 2.489-1.075a3.635 3.635 0 0 0 0.243-0.497c0.037-0.083 0.071-0.165 0.111-0.247 0.014-0.03 0.028-0.061 0.041-0.092 0.058-0.134 0.1-0.222 0.185-0.266 0.208 0.318 0.229 0.487 0.292 1.321a3.37 3.37 0 0 1-0.997 2.645a3.406 3.406 0 0 1-2.678 1.001l-0.108-0.012a1.145 1.145 0 0 0-0.425 0.006a0.504 0.504 0 0 0-0.329 0.369a0.569 0.569 0 0 0 0.208 0.428a0.493 0.493 0 0 0 0.3 0.093l0.068 0.007a4.345 4.345 0 0 0 0.566 0.037a4.19 4.19 0 0 0 2.229-0.648a0.391 0.391 0 0 1 0.511-0.006a3.589 3.589 0 0 0 0.358 0.213c0.103 0.056 0.207 0.111 0.303 0.177a0.738 0.738 0 0 0 0.929-0.039l0.121-0.089c0.069-0.051 0.139-0.102 0.207-0.155A9.356 9.356 2.723 0 0 17.271 20.55c0.967-1.759 1.394-3.334 1.344-4.956a1.065 1.065 0 0 0-0.591-1.009c-0.762-0.421-1.526-0.868-2.266-1.303l-0.775-0.453c-0.093-0.054-0.183-0.112-0.275-0.172l-0.042-0.028l2.914-7.277l0.031 0.003c0.064 0.006 0.111 0.012 0.157 0.018a2.645 2.645 0 0 0 2.445-0.809a6.519 6.519 0 0 0 0.876-1.227a1.235 1.235 0 0 0 0.152-0.954M14.064 21.707a4.864 4.864 0 0 1 0.606-0.832a9.01 9.01 0 0 0 2.326-4.525l0.014-0.062a0.801 0.801 0 0 0 0.031-0.179a0.441 0.441 0 0 0-0.36-0.49a0.43 0.43 0 0 0-0.521 0.313a1.095 1.095 0 0 0-0.041 0.188c-0.004 0.03-0.009 0.061-0.016 0.091A9.054 9.054 2.723 0 1 14.576 19.585c-0.006 0.009-0.012 0.016-0.018 0.024-0.001-0.027-0.004-0.052-0.006-0.078a5.701 5.701 0 0 0-0.084-0.744A7.295 7.295 2.723 0 0 14.121 17.613a0.48 0.48 0 0 1 0.004-0.408c0.234-0.6 0.448-1.218 0.654-1.817l0.074-0.213a0.718 0.718 0 0 0 0.041-0.428c-0.043-0.133-0.182-0.337-0.342-0.353a0.609 0.609 0 0 0-0.465 0.211a0.635 0.635 0 0 0-0.114 0.322a1.103 1.103 0 0 1-0.02 0.111a7.126 7.126 0 0 1-0.546 1.589l-1.211-1.071l0.487-1.741A1.151 1.151 2.723 0 0 12.729 13.589a0.44 0.44 0 0 0-0.357-0.539a0.433 0.433 0 0 0-0.535 0.369c-0.016 0.069-0.03 0.139-0.044 0.208-0.021 0.105-0.042 0.21-0.072 0.312-0.077 0.267-0.16 0.532-0.249 0.821l-0.062 0.199L10.097 14.083l0.018-0.055c0.034-0.102 0.068-0.204 0.097-0.307l0.04-0.143c0.099-0.357 0.199-0.716 0.288-1.075a0.461 0.461 0 0 0-0.309-0.616a0.404 0.404 0 0 0-0.325 0.024a0.614 0.614 0 0 0-0.263 0.402l-0.343 1.292L8.64 13.219A8.053 8.053 2.723 0 0 9.037 10.441c0.1 0.051 0.182 0.093 0.261 0.139l2.207 1.282q2.947 1.711 5.896 3.415a0.564 0.564 0 0 1 0.322 0.58a8.577 8.577 0 0 1-0.78 3.305a9.404 9.404 0 0 1-2.533 3.499c-0.327 0.275-0.326 0.276-0.708 0.059-0.077-0.044-0.152-0.089-0.243-0.143l-0.02-0.012a5.233 5.233 0 0 0 0.625-0.857m-1.329-4.427c-0.064 0.118-0.125 0.23-0.185 0.337-0.153 0.278-0.295 0.539-0.419 0.806a1.448 1.448 0 0 1-1.236 0.985a2.208 2.208 0 0 1-0.948-0.173a5.905 5.905 0 0 1-2.63-2.275a0.794 0.794 0 0 0-0.73-0.415c-0.037 0-0.074 0-0.111 0.004a1.714 1.714 0 0 1-1.324-0.507a1.793 1.793 0 0 1-0.548-1.366a2.653 2.653 0 0 1 0.388-1.35C5.321 12.821 5.616 12.739 6.164 12.998a26.091 26.091 0 0 1 5.814 3.59c0.213 0.179 0.418 0.373 0.6 0.545 0.055 0.052 0.106 0.102 0.158 0.148M18.918 4.358a1.447 1.447 0 0 1-2.048-0.857a4.636 4.636 0 0 1-0.233-0.826c-0.025-0.117-0.05-0.23-0.078-0.34 0.025-0.121 0.047-0.238 0.069-0.351a6.499 6.499 0 0 1 0.167-0.719a0.471 0.471 0 0 1 0.252-0.313a0.49 0.49 0 0 1 0.417 0.052Q18.776 1.699 20.082 2.405c0.168 0.092 0.256 0.167 0.276 0.239A0.453 0.453 2.723 0 1 20.262 2.954a4.601 4.601 0 0 1-0.598 0.86A2.264 2.264 2.723 0 1 18.918 4.358M6.2 18.13c0.087 0.189 0.102 0.456-0.316 0.65a6.988 6.988 0 0 1-2.437 0.66l-0.106 0h-0.074c-0.03 0-0.059 0-0.087 0A0.43 0.43 2.723 0 1 2.723 18.977a0.434 0.434 0 0 1 0.43-0.43c0.083-0.01 0.168-0.018 0.251-0.027a4.404 4.404 0 0 0 0.709-0.109c0.48-0.129 0.944-0.303 1.394-0.47 0.142-0.052 0.517-0.193 0.693 0.188" />
</g>
<g class="root" id="snow_removalv2_old" data-name="snow-removalV2-old">
	<path d="M15.043 18.137a2.119 2.119 0 0 0 0 2.963a2.04 2.04 0 0 0 2.917 0a2.119 2.119 0 0 0 0-2.963a2.041 2.041 0 0 0-2.917 0M17.437 19.619A0.938 0.938 0.186 1 1 16.501 18.665A0.946 0.946 0.186 0 1 17.437 19.619M23.252 0.001a4.621 4.621 0 0 0-2.176 0.509A2.978 2.978 0.186 0 0 19.742 1.851a0.579 0.579 0 0 0-0.033 0.088L16.826 12.191H16.314v-2.476a0.568 0.568 0 0 0-0.563-0.572H11.25a0.567 0.567 0 0 0-0.562 0.572v2.476H10.211L8.802 5.032a0.577 0.577 0 0 0-0.155-0.292l-3-3.049a0.558 0.558 0 0 0-0.488-0.161a0.564 0.564 0 0 0-0.413 0.308l-1.501 3.049a0.579 0.579 0 0 0 0.106 0.659l1.335 1.356V12.604a6.514 6.514 0 0 0-1.301-1.129a4.814 4.814 0 0 0-2.64-0.807A0.567 0.567 0.186 0 0 0.186 11.238V21.904A2.099 2.099 0.186 0 0 0.789 23.386a2.036 2.036 0 0 0 1.459 0.613H3.749a3.495 3.495 0 0 0 1.388-0.284A3.541 3.541 0.186 0 0 6.269 22.94a3.575 3.575 0 0 0 0.995-1.988h5.131c0.039 0.125 0.083 0.25 0.134 0.372A4.367 4.367 0.186 0 0 13.451 22.717a4.295 4.295 0 0 0 1.371 0.938a4.264 4.264 0 0 0 3.358 0A4.295 4.295 0.186 0 0 19.551 22.717a4.367 4.367 0 0 0 0.924-1.392a4.451 4.451 0 0 0 0-3.411a4.365 4.365 0 0 0-0.924-1.392A4.288 4.288 0.186 0 0 18.18 15.582c-0.122-0.052-0.247-0.098-0.372-0.138l0.006-2.603L20.779 2.302a1.924 1.924 0 0 1 0.822-0.781a3.511 3.511 0 0 1 1.652-0.376a0.567 0.567 0 0 0 0.562-0.571A0.567 0.567 0.186 0 0 23.252 0.001M11.813 10.286h3.376v1.905H11.813ZM4.434 5.03l0.97-1.971l2.328 2.365L9.161 12.682l-1.259 2.556H6.32a10.522 10.522 0 0 0-0.509-1.053V6.667a0.579 0.579 0 0 0-0.165-0.404Zm1.041 17.102a2.403 2.403 0 0 1-1.724 0.724H2.248a0.946 0.946 0 0 1-0.938-0.952V11.856a3.879 3.879 0 0 1 1.474 0.583a6.033 6.033 0 0 1 1.74 1.793a9.745 9.745 0 0 1 1.212 2.744a12.761 12.761 0 0 1 0.451 3.406a2.481 2.481 0 0 1-0.714 1.751M18.755 17.329a3.272 3.272 0 0 1 0 4.579a3.154 3.154 0 0 1-4.508 0a3.272 3.272 0 0 1 0-4.579a3.153 3.153 0 0 1 4.508 0m-2.255-2.091a4.228 4.228 0 0 0-1.679 0.344a4.288 4.288 0 0 0-1.371 0.938a4.365 4.365 0 0 0-0.924 1.392a4.414 4.414 0 0 0-0.34 1.706c0 0.064 0.007 0.126 0.009 0.19H7.293a13.736 13.736 0 0 0-0.474-3.144c-0.027-0.097-0.061-0.189-0.09-0.284H8.25a0.562 0.562 0 0 0 0.503-0.316l1.344-2.732H16.687l-0.004 1.914c-0.06-0.002-0.12-0.009-0.181-0.009M1.686 2.096A0.567 0.567 0.186 0 1 2.248 1.525h0.015a0.571 0.571 0 0 1 0 1.143h-0.015A0.567 0.567 0.186 0 1 1.686 2.096M0.186 0.572A0.567 0.567 0.186 0 1 0.748 0.001h0.015A0.567 0.567 0.186 0 1 1.326 0.572A0.567 0.567 0.186 0 1 0.763 1.144H0.748A0.567 0.567 0.186 0 1 0.186 0.572m0 3.049A0.567 0.567 0.186 0 1 0.748 3.049h0.015a0.571 0.571 0 0 1 0 1.142H0.748A0.567 0.567 0.186 0 1 0.186 3.62" />
</g>
<g class="root" id="speech_bubbles" data-name="speech-bubbles">
	<path d="M24 16.341V5.014A3.642 3.642 0 0 0 20.363 1.376H9.355A3.642 3.642 0 0 0 5.718 5.014v2.081H3.637A3.641 3.641 0 0 0 0 10.731V22.06a0.562 0.562 0 0 0 0.348 0.521a0.57 0.57 0 0 0 0.615-0.122l2.694-2.693H14.645A3.642 3.642 0 0 0 18.283 16.129V14.048h2.06l2.693 2.693a0.571 0.571 0 0 0 0.615 0.123A0.563 0.563 0 0 0 24 16.341m-6.847-0.213a2.51 2.51 0 0 1-2.508 2.507H3.423a0.559 0.559 0 0 0-0.399 0.166L1.129 20.697V10.731a2.511 2.511 0 0 1 2.508-2.508h2.08v2.187A3.642 3.642 0 0 0 9.355 14.048H17.153Zm5.718-1.15l-1.895-1.895a0.561 0.561 0 0 0-0.399-0.165H9.355a2.511 2.511 0 0 1-2.508-2.508V5.014a2.511 2.511 0 0 1 2.508-2.508H20.363a2.511 2.511 0 0 1 2.508 2.508Z" />
	<path d="M19.147 7.094a0.59 0.59 0 0 0-0.415 0.186a0.509 0.509 0 0 0-0.15 0.372a0.574 0.574 0 0 0 0.565 0.572a0.589 0.589 0 0 0 0.415-0.186a0.507 0.507 0 0 0 0.15-0.373a0.581 0.581 0 0 0-0.565-0.571" />
	<path d="M10.571 7.094a0.588 0.588 0 0 0-0.415 0.186a0.508 0.508 0 0 0-0.15 0.373a0.574 0.574 0 0 0 0.565 0.571a0.59 0.59 0 0 0 0.415-0.186a0.506 0.506 0 0 0 0.15-0.372a0.574 0.574 0 0 0-0.565-0.571" />
	<path d="M14.859 7.094a0.588 0.588 0 0 0-0.415 0.186a0.509 0.509 0 0 0-0.15 0.372a0.574 0.574 0 0 0 0.565 0.572a0.59 0.59 0 0 0 0.415-0.186a0.508 0.508 0 0 0 0.15-0.372a0.574 0.574 0 0 0-0.565-0.571" />
</g>
<g class="root" id="thumb_up" data-name="thumb-up">
	<path d="M23.996 9.283a2.249 2.249 0 0 0-2.245-2.245H17.093a2.2 2.2 0 0 0-0.32 0.027H15.714l0.398-1.41V3.229A2.67 2.67 0 0 0 13.446 0.563H12.751c-0.03 0-0.062 0-0.108 0.004L12.086 0.59v3.56l-0.68 0.958l-2.998 3.275a4.24 4.24 0 0 0-0.912 1.475h-0.162v-0.68H0v1.16H4.546V22.277H0v1.16H5.706v-1.48h1.626V20.043h0.939a4.208 4.208 0 0 0 3.218 1.48h5.96V21.515h1.64a2.249 2.249 0 0 0 2.245-2.245a2.275 2.275 0 0 0-0.328-1.166A2.24 2.24 0 0 0 22.12 14.473a2.24 2.24 0 0 0 0.579-3.156A2.24 2.24 0 0 0 24 9.283Zm-2.047 3.33a1.086 1.086 0 0 1-1.086 1.086H16.2a1.086 1.086 0 1 1 0-2.171H20.863a1.086 1.086 0 0 1 1.086 1.086ZM6.173 20.797H5.706V10.344h0.467V20.801Zm2.84-1.68L8.84 18.883H7.331V11.024h1.046l0.108-0.445a3.101 3.101 0 0 1 0.769-1.402l3.032-3.31l0.96-1.344v-2.8h0.2a1.509 1.509 0 0 1 1.506 1.506v2.267l-0.699 2.464l-0.019 0.008a0.112 0.112 0 0 1 0.008 0.03l-0.066 0.228h0.135a5.14 5.14 0 0 1-0.011 2.808a4.956 4.956 0 0 1-2 2.816a3.574 3.574 0 0 1-2.955 0.52l-0.317 1.117a4.541 4.541 0 0 0 1.221 0.17a4.873 4.873 0 0 0 2.685-0.84a5.709 5.709 0 0 0 1.28-1.163a2.292 2.292 0 0 0 0.29 0.425a2.238 2.238 0 0 0-0.247 3.526a2.232 2.232 0 0 0-0.459 2.76H11.48a3.069 3.069 0 0 1-2.472-1.244Zm10.08 1.236H15.76a1.086 1.086 0 1 1 0-2.171h3.33a1.086 1.086 0 0 1 0 2.171Zm1.333-3.33H15.76a1.086 1.086 0 1 1 0-2.171H20.422a1.086 1.086 0 1 1 0 2.171ZM21.755 10.363H17.098a1.085 1.085 0 0 1-0.232-2.144H18.96v-0.03H21.752a1.086 1.086 0 0 1 0 2.171Z" />
</g>
<g class="root" id="thumb_up_sparkles" data-name="thumb-up-sparkles">
	<path d="M20.056 13.635a1.972 1.972 0 0 0-1.969-1.969H14.527a6.855 6.855 0 0 0 0.216-1.335c0.142-2.024-0.216-3.448-1.069-4.232A2.28 2.28 1.205 0 0 11.785 5.511a1.021 1.021 0 0 0-0.686 0.432c-0.416 0.597-0.259 1.575-0.207 1.827 0.15 1.275-0.461 1.975-1.238 2.865-0.183 0.211-0.373 0.427-0.558 0.658-0.323 0.404-1.632 0.916-2.61 1.18a0.411 0.411 0 0 0-0.409-0.389H1.618A0.414 0.414 1.205 0 0 1.205 12.497V23.235a0.414 0.414 0 0 0 0.413 0.413H6.077a0.413 0.413 0 0 0 0.413-0.408a10.89 10.89 0 0 1 1.906 0.273c0.134 0.028 0.266 0.057 0.397 0.086a15.003 15.003 0 0 0 3.796 0.397h4.016a1.969 1.969 0 0 0 1.59-3.131a1.967 1.967 0 0 0 0.544-2.726a1.973 1.973 0 0 0 0.551-2.948a1.967 1.967 0 0 0 0.767-1.56M2.033 22.821V12.911h3.632v0.1a0.551 0.551 0 0 0-0.021 0.116a0.389 0.389 0 0 0 0.021 0.101V22.559a0.389 0.389 0 0 0-0.021 0.101a0.563 0.563 0 0 0 0.021 0.143v0.019ZM18.448 14.719a0.414 0.414 0 0 0-0.086 0.743a1.138 1.138 0 0 1 0.541 0.971a1.152 1.152 0 0 1-0.959 1.128a0.414 0.414 0 0 0-0.176 0.744a1.142 1.142 0 0 1-0.389 2.035a0.414 0.414 0 0 0-0.131 0.743a1.142 1.142 0 0 1-0.639 2.088h-4.016a14.286 14.286 0 0 1-3.617-0.378c-0.135-0.029-0.269-0.06-0.408-0.086a11.353 11.353 0 0 0-2.073-0.294V13.324c0.786-0.199 2.663-0.777 3.252-1.515 0.177-0.221 0.359-0.429 0.537-0.634 0.836-0.959 1.626-1.864 1.428-3.536a1.912 1.912 0 0 1 0.069-1.224a0.188 0.188 0 0 1 0.131-0.086a1.453 1.453 0 0 1 1.206 0.377c0.658 0.605 0.929 1.807 0.805 3.568a5.049 5.049 0 0 1-0.352 1.641a0.413 0.413 0 0 0 0.378 0.579H18.089a1.142 1.142 0 0 1 0.361 2.226M2.67 6.03a3.334 3.334 0 0 1 2.04 2.04a0.414 0.414 0 0 0 0.786 0a3.334 3.334 0 0 1 2.04-2.04a0.414 0.414 0 0 0 0-0.786A3.332 3.332 1.205 0 1 5.496 3.204a0.414 0.414 0 0 0-0.786 0a3.333 3.333 0 0 1-2.04 2.04a0.414 0.414 0 0 0 0 0.786M5.102 4.29a4.356 4.356 0 0 0 1.347 1.347a4.366 4.366 0 0 0-1.347 1.347A4.361 4.361 1.205 0 0 3.753 5.637a4.352 4.352 0 0 0 1.347-1.347M22.511 7.548a2.669 2.669 0 0 1-1.612-1.612a0.414 0.414 0 0 0-0.786 0a2.67 2.67 0 0 1-1.612 1.612a0.414 0.414 0 0 0 0 0.786a2.67 2.67 0 0 1 1.612 1.612a0.414 0.414 0 0 0 0.786 0A2.669 2.669 1.205 0 1 22.511 8.334a0.414 0.414 0 0 0 0-0.786M20.507 8.899a3.636 3.636 0 0 0-0.957-0.957A3.643 3.643 1.205 0 0 20.507 6.984a3.636 3.636 0 0 0 0.957 0.957A3.636 3.636 1.205 0 0 20.507 8.899M12.97 2.442a2.273 2.273 0 0 1 1.371 1.371a0.414 0.414 0 0 0 0.786 0A2.271 2.271 1.205 0 1 16.5 2.442a0.414 0.414 0 0 0 0-0.786A2.272 2.272 1.205 0 1 15.129 0.285a0.414 0.414 0 0 0-0.786 0a2.271 2.271 0 0 1-1.371 1.371a0.414 0.414 0 0 0 0 0.786m1.764-1.137a3.239 3.239 0 0 0 0.743 0.743a3.239 3.239 0 0 0-0.743 0.743a3.249 3.249 0 0 0-0.743-0.743a3.249 3.249 0 0 0 0.743-0.743" />
</g>
<g class="root" id="triple_sparkles" data-name="triple-sparkles">
	<path d="M8.329 18.209c-0.355 0-3.468-0.105-3.468-3.765a0.464 0.464 0 1 0-0.927 0c0 3.658-3.114 3.765-3.469 3.765l-0.041 0A0.464 0.464 0.001 0 0 0.001 18.672a0.469 0.469 0 0 0 0.464 0.464c0.355 0 3.469 0.106 3.469 3.765a0.47 0.47 0 0 0 0.451 0.464a0.296 0.296 0 0 0 0.082 0.011a0.312 0.312 0 0 0 0.184-0.063a0.472 0.472 0 0 0 0.18-0.384c0-3.658 3.114-3.765 3.469-3.765H8.329A0.479 0.479 0.001 0 0 8.792 18.672A0.47 0.47 0.001 0 0 8.329 18.209m-3.962 2.407A4.114 4.114 0.001 0 0 2.43 18.704a4.022 4.022 0 0 0 1.936-1.91a3.995 3.995 0 0 0 1.938 1.906a4.022 4.022 0 0 0-1.937 1.915M11.728 5.832A0.48 0.48 0.001 0 0 12.193 5.339a0.47 0.47 0 0 0-0.464-0.464c-0.355 0-3.468-0.106-3.468-3.765a0.464 0.464 0 1 0-0.927 0c0 3.658-3.114 3.765-3.468 3.765l-0.041 0a0.464 0.464 0 0 0-0.423 0.462A0.47 0.47 0.001 0 0 3.864 5.803c0.355 0 3.468 0.105 3.468 3.765a0.466 0.466 0 0 0 0.448 0.462h0.003a0.3 0.3 0 0 0 0.053 0.005a0.362 0.362 0 0 0 0.233-0.091a0.461 0.461 0 0 0 0.16-0.347c0-3.658 3.114-3.765 3.468-3.765Zm-3.96 1.416a3.996 3.996 0 0 0-1.938-1.906a4.02 4.02 0 0 0 1.934-1.91a3.999 3.999 0 0 0 1.938 1.906a4.019 4.019 0 0 0-1.936 1.91m16.15 6.151a0.559 0.559 0 0 0-0.393-0.244c-0.66 0-6.455-0.195-6.455-6.957a0.464 0.464 0 0 0-0.927 0c0 6.762-5.767 6.957-6.425 6.957a0.415 0.415 0 0 0-0.284 0.104a0.36 0.36 0 0 0-0.106 0.101a0.328 0.328 0 0 1-0.02 0.025l-0.015 0.02a0.519 0.519 0 0 0 0 0.455a0.486 0.486 0 0 0 0.426 0.251h0.03c0.657 0 6.425 0.195 6.425 6.957a0.464 0.464 0 1 0 0.927 0c0-6.762 5.769-6.957 6.425-6.957a0.533 0.533 0 0 0 0.426-0.251a0.443 0.443 0 0 0-0.032-0.461M16.607 17.912A6.802 6.802 0.001 0 0 12.243 13.617A6.807 6.807 0.001 0 0 16.607 9.322a6.807 6.807 0 0 0 4.364 4.295a6.803 6.803 0 0 0-4.364 4.295" />
</g>
<g class="root" id="window_cleaning" data-name="window-cleaning">
	<path d="M24 1.218H13.166a1.443 1.443 0 0 0-2.332 0H0l1.057 2.264H10.507L9.654 21.872a1.453 1.453 0 0 0 1.472 1.504h1.745a1.455 1.455 0 0 0 1.472-1.504l-0.851-18.392h9.45Zm-13.47 1.74H2.56V2.442H10.554Zm1.232 19.374H11.233V15.72H11.761ZM10.945 11.126l0.424-9.143a0.634 0.634 0 0 1 1.263 0l0.424 9.141ZM21.439 2.958H13.47l-0.024-0.515H21.439Z" />
</g>
<g class="root" id="window_squeegee" data-name="window-squeegee">
	<path d="M10.106 4.217l-2.162-1.364L5.782 4.217l1.397-2.109L5.782 0l2.162 1.364L10.106 0l-1.397 2.109ZM7.01 1.198l0.604 0.911L7.01 3.019l0.931-0.588l0.931 0.588l-0.603-0.911l0.603-0.911l-0.931 0.588ZM21.999 5.535H12.972a1.202 1.202 0 0 0-1.943 0H2.001l0.879 1.885h7.874L10.046 22.746a1.212 1.212 0 0 0 1.227 1.254h1.455a1.213 1.213 0 0 0 1.227-1.254L13.245 7.421H21.119Zm-11.226 1.449H4.135v-0.428H10.796Zm1.026 16.141h-0.44V17.619h0.44ZM11.122 13.792l0.353-7.618a0.528 0.528 0 0 1 1.053 0l0.353 7.617ZM19.866 6.984H13.227l-0.02-0.428H19.866Z" />
</g>
</svg>